<svg xmlns="http://www.w3.org/2000/svg" width="77.76" height="40" viewBox="0 0 77.76 40">
  <g id="image_logo" transform="translate(-0.086 -0.205)">
    <g id="组_225" transform="translate(0.086 20.076)">
      <g id="组_21" transform="translate(4.753 15.23)">
        <path id="路径_18" d="M4.366,4.814V1.626q0-.393.047-.948H4.4a2.969,2.969,0,0,1-.143.485L2.662,4.814H2.316L.725,1.191A3.242,3.242,0,0,1,.582.678H.564Q.6,1.014.6,1.654v3.16H0V0H.845L2.269,3.3a4.238,4.238,0,0,1,.215.59h.022q.162-.444.227-.6L4.183,0h.8V4.813Z" transform="translate(0)" fill="#fff"/>
      </g>
      <g id="组_22" transform="translate(10.5 15.23)">
        <path id="路径_19" d="M3.407.553H2.014v4.26H1.387V.553H0V0H3.407Z" transform="translate(0 0)" fill="#fff"/>
      </g>
      <g id="组_23" transform="translate(16.531 15.229)">
        <path id="路径_20" d="M0,4.815V0H1.378A2.672,2.672,0,0,1,3.2.638,2.159,2.159,0,0,1,3.93,2.348,2.328,2.328,0,0,1,3.2,4.14a2.648,2.648,0,0,1-1.875.674ZM.624.555v3.71h.7a1.977,1.977,0,0,0,1.435-.5,1.864,1.864,0,0,0,.516-1.4,1.686,1.686,0,0,0-.53-1.355A2.069,2.069,0,0,0,1.353.555Z" transform="translate(0 0)" fill="#fff"/>
      </g>
      <g id="组_24" transform="translate(20.727 15.23)">
        <path id="路径_21" d="M4.346,4.813h-.69L3.163,3.5H1.154L.69,4.813H0L1.84,0h.667ZM2.971,2.952l-.729-2A2.2,2.2,0,0,1,2.167.615H2.152a1.868,1.868,0,0,1-.078.335l-.723,2Z" transform="translate(0)" fill="#fff"/>
      </g>
      <g id="组_25" transform="translate(24.785 15.23)">
        <path id="路径_22" d="M3.406.553H2.013v4.26H1.387V.553H0V0H3.406Z" transform="translate(0 0)" fill="#fff"/>
      </g>
      <g id="组_26" transform="translate(27.86 15.23)">
        <path id="路径_23" d="M4.347,4.813h-.69L3.165,3.5H1.154L.69,4.813H0L1.84,0h.667ZM2.973,2.952l-.729-2A2.287,2.287,0,0,1,2.169.615H2.153a1.836,1.836,0,0,1-.078.335l-.723,2Z" fill="#fff"/>
      </g>
      <g id="组_27" transform="translate(34.303 15.23)">
        <path id="路径_24" d="M3.407.553H2.014v4.26H1.388V.553H0V0H3.407Z" transform="translate(0 0)" fill="#fff"/>
      </g>
      <g id="组_28" transform="translate(38.451 15.23)">
        <path id="路径_25" d="M2.6,4.813H0V0H2.487V.553H.624v1.54H2.35v.55H.624V4.262H2.595Z" transform="translate(0)" fill="#fff"/>
      </g>
      <g id="组_29" transform="translate(41.644 15.148)">
        <path id="路径_26" d="M3.618,4.7a2.859,2.859,0,0,1-1.337.279A2.172,2.172,0,0,1,.623,4.319,2.429,2.429,0,0,1,0,2.58,2.551,2.551,0,0,1,.7.71,2.384,2.384,0,0,1,2.475,0,2.894,2.894,0,0,1,3.619.2v.65A2.312,2.312,0,0,0,2.481.562,1.732,1.732,0,0,0,1.167,1.1,2.018,2.018,0,0,0,.659,2.544a1.932,1.932,0,0,0,.474,1.372,1.618,1.618,0,0,0,1.241.508A2.346,2.346,0,0,0,3.62,4.1Z" transform="translate(0 0)" fill="#fff"/>
      </g>
      <g id="组_30" transform="translate(46.224 15.23)">
        <path id="路径_27" d="M3.692,4.813H3.068V2.644H.624V4.813H0V0H.624V2.091H3.068V0h.624Z" fill="#fff"/>
      </g>
      <g id="组_31" transform="translate(51.161 15.23)">
        <path id="路径_28" d="M3.943,4.813H3.2L.776,1.069A1.844,1.844,0,0,1,.612.755H.591a5.577,5.577,0,0,1,.025.674V4.813H0V0H.782L3.145,3.679a3.433,3.433,0,0,1,.2.332h.012a5.324,5.324,0,0,1-.033-.7V0h.619Z" fill="#fff"/>
      </g>
      <g id="组_32" transform="translate(56.034 15.148)">
        <path id="路径_29" d="M0,2.547A2.638,2.638,0,0,1,.636.692,2.211,2.211,0,0,1,2.35,0,2.087,2.087,0,0,1,3.971.677a2.507,2.507,0,0,1,.614,1.756,2.645,2.645,0,0,1-.629,1.858,2.172,2.172,0,0,1-1.683.688A2.132,2.132,0,0,1,.624,4.3,2.491,2.491,0,0,1,0,2.547ZM.658,2.5a2.09,2.09,0,0,0,.447,1.4,1.458,1.458,0,0,0,1.167.527,1.527,1.527,0,0,0,1.214-.505,2.077,2.077,0,0,0,.441-1.412A2.157,2.157,0,0,0,3.5,1.067,1.472,1.472,0,0,0,2.313.561a1.5,1.5,0,0,0-1.2.535A2.078,2.078,0,0,0,.658,2.5Z" transform="translate(0)" fill="#fff"/>
      </g>
      <g id="组_33" transform="translate(61.549 15.23)">
        <path id="路径_30" d="M2.547,4.813H0V0H.624V4.263H2.547Z" transform="translate(0)" fill="#fff"/>
      </g>
      <g id="组_34" transform="translate(64.268 15.148)">
        <path id="路径_31" d="M0,2.547A2.638,2.638,0,0,1,.636.692,2.211,2.211,0,0,1,2.35,0,2.087,2.087,0,0,1,3.971.677a2.507,2.507,0,0,1,.614,1.756,2.645,2.645,0,0,1-.629,1.858,2.172,2.172,0,0,1-1.683.688A2.132,2.132,0,0,1,.624,4.3,2.491,2.491,0,0,1,0,2.547ZM.658,2.5a2.092,2.092,0,0,0,.447,1.4,1.459,1.459,0,0,0,1.167.527,1.528,1.528,0,0,0,1.214-.505,2.077,2.077,0,0,0,.441-1.412A2.154,2.154,0,0,0,3.5,1.068,1.472,1.472,0,0,0,2.313.562a1.5,1.5,0,0,0-1.2.535A2.078,2.078,0,0,0,.658,2.5Z" transform="translate(0)" fill="#fff"/>
      </g>
      <g id="组_35" transform="translate(69.471 15.147)">
        <path id="路径_32" d="M3.964,4.567a3.25,3.25,0,0,1-1.633.41,2.245,2.245,0,0,1-1.687-.66A2.425,2.425,0,0,1,0,2.554,2.5,2.5,0,0,1,.711.719,2.435,2.435,0,0,1,2.524,0,3.166,3.166,0,0,1,3.849.25V.921A2.544,2.544,0,0,0,2.469.558a1.716,1.716,0,0,0-1.3.538,2.278,2.278,0,0,0-.04,2.825,1.656,1.656,0,0,0,1.271.5,1.932,1.932,0,0,0,.938-.211V2.91H2.291V2.36H3.965Z" transform="translate(0 0)" fill="#fff"/>
      </g>
      <g id="组_36" transform="translate(73.962 15.23)">
        <path id="路径_33" d="M3.765,0,2.175,3.042V4.813H1.549V3.058L0,0H.714L1.758,2.132s.04.1.115.308h.009a1.7,1.7,0,0,1,.128-.3L3.1,0Z" fill="#fff"/>
      </g>
      <g id="组_38" transform="translate(0 15.195)">
        <g id="组_37" transform="translate(0 0)">
          <path id="路径_34" d="M3.883,4.556a4.419,4.419,0,0,1-1.453.259A2.436,2.436,0,0,1,.662,4.192,2.422,2.422,0,0,1,0,2.436,2.37,2.37,0,0,1,2.564,0,2.934,2.934,0,0,1,3.744.218L3.6.715A2.457,2.457,0,0,0,2.55.512a1.766,1.766,0,0,0-1.9,1.9,1.731,1.731,0,0,0,1.825,1.9,1.993,1.993,0,0,0,.814-.126V2.779H2.324V2.287H3.882Z" fill="#fff"/>
        </g>
      </g>
      <g id="组_43" transform="translate(67.276 0.124)">
        <g id="组_40" transform="translate(0 0)">
          <g id="组_39">
            <path id="路径_35" d="M4.537,11.131V0H0V2.748H3.518v8.382Z" transform="translate(0 0)" fill="#fff"/>
          </g>
        </g>
        <g id="组_42" transform="translate(5.948 0)">
          <g id="组_41">
            <path id="路径_36" d="M0,0V11.131H1.018V2.748H4.537V0Z" transform="translate(0 0)" fill="#fff"/>
          </g>
        </g>
      </g>
      <g id="组_48" transform="translate(51.86 0.124)">
        <g id="组_44">
          <path id="路径_37" d="M5.574,4.012,4.538,0H0V11.131H2.825V2.642L5,11.131h.575Z" fill="#fff"/>
        </g>
        <g id="组_46" transform="translate(6.984)">
          <path id="路径_38" d="M1.039,0,0,4.051v7.079H.571L2.748,2.642v8.488H5.573V0Z" fill="#fff"/>
        </g>
      </g>
      <g id="组_52" transform="translate(37.94 0)">
        <g id="组_49" transform="translate(6.27)">
          <path id="路径_39" d="M0,2.43a1.888,1.888,0,0,1,.77.287,1.758,1.758,0,0,1,.682.944l3.257-.579a4.5,4.5,0,0,0-.89-1.743A3.516,3.516,0,0,0,2.328.324,7.627,7.627,0,0,0,0,0Z" fill="#fff"/>
        </g>
        <g id="组_50" transform="translate(6.269 4.866)">
          <path id="路径_40" d="M0,0V2.266H1.9V3.291a5.832,5.832,0,0,1-1.177.557A3.476,3.476,0,0,1,0,3.986v2.4a8.458,8.458,0,0,0,2.209-.352A10.685,10.685,0,0,0,4.858,4.643V0Z" fill="#fff"/>
        </g>
        <g id="组_51" transform="translate(0 0.048)">
          <path id="路径_41" d="M4.859,8.643a2.11,2.11,0,0,1-.807-.571,3.807,3.807,0,0,1-.667-2.527,3.694,3.694,0,0,1,.659-2.434,2.115,2.115,0,0,1,.815-.59V0A5.867,5.867,0,0,0,2.9.477a4.771,4.771,0,0,0-2.16,2A6.252,6.252,0,0,0,0,5.582a6.46,6.46,0,0,0,.674,3,4.529,4.529,0,0,0,1.9,1.969,5.884,5.884,0,0,0,2.283.622Z" transform="translate(0 0)" fill="#fff"/>
        </g>
      </g>
    </g>
    <g id="组_226" transform="translate(0.161 0.205)">
      <g id="组_1" transform="translate(3.781 5.072)">
        <path id="路径_1" d="M24.41,21.2c-.064-3.239-3.454-8.6-8.435-13.344A36.94,36.94,0,0,0,6.851,1.307C3.972-.062,1.7-.367.443.447h0A2.163,2.163,0,0,0,.06.763L0,.829.069.89.118.836A2.127,2.127,0,0,1,.494.525h0c1.244-.808,3.475-.555,6.343.809a36.966,36.966,0,0,1,9.115,6.543c4.976,4.737,8.312,10.1,8.378,13.332a2.558,2.558,0,0,1-.656,1.963,2.124,2.124,0,0,1-.367.3c-1.237.8-3.444.565-6.3-.782a30.662,30.662,0,0,1-5.931-3.85l-.216.028a32.371,32.371,0,0,0,6.074,3.878c2.861,1.352,5.176,1.617,6.422.806a2.161,2.161,0,0,0,.372-.305A2.746,2.746,0,0,0,24.41,21.2Z" transform="translate(0 0)" fill="#fdfdfd"/>
      </g>
      <g id="组_4" transform="translate(0.297 3.725)">
        <g id="组_2" transform="translate(2.631 0)">
          <path id="路径_2" d="M23.973,3.247A16,16,0,0,0,19.192.807,17.627,17.627,0,0,0,13.968,0a18.162,18.162,0,0,0-9.9,2.838,15.882,15.882,0,0,0-1.373,1A14.932,14.932,0,0,0,0,6.706,14.981,14.981,0,0,1,2.626,3.954,15.853,15.853,0,0,1,4,2.955a17.8,17.8,0,0,1,19.953.375,13.273,13.273,0,0,1,5.662,11.1,14.1,14.1,0,0,1-6.676,11.146v.039a15.685,15.685,0,0,0,4.9-5.055,12.952,12.952,0,0,0,1.811-6.127A13.4,13.4,0,0,0,23.973,3.247Z" transform="translate(0 0)" fill="#fdfdfd"/>
        </g>
        <g id="组_3" transform="translate(0 6.704)">
          <path id="路径_3" d="M.011,7.629A13.137,13.137,0,0,1,.256,5.435,13.986,13.986,0,0,1,2.632,0,13.342,13.342,0,0,0,0,7.632Z" fill="#fdfdfd"/>
        </g>
      </g>
      <g id="组_5" transform="translate(1.694 0.072)">
        <path id="路径_4" d="M29.622,9.672A13.889,13.889,0,0,0,26.3,4.539a15.262,15.262,0,0,0-4.66-3.167A16.368,16.368,0,0,0,16.3.053,16.9,16.9,0,0,0,5.853,2.665,15.46,15.46,0,0,0,4.378,3.753,13.975,13.975,0,0,0,0,10.166l.036-.01A13.945,13.945,0,0,1,4.4,3.777,15.425,15.425,0,0,1,5.871,2.692a16.6,16.6,0,0,1,20.406,1.87,13.058,13.058,0,0,1,4,10.728,13.911,13.911,0,0,1-6.265,10l.017.027a14.821,14.821,0,0,0,4.324-4.412,13.023,13.023,0,0,0,1.955-5.614A12.57,12.57,0,0,0,29.622,9.672Z" transform="translate(0 0)" fill="#fdfdfd"/>
      </g>
      <g id="组_6" transform="translate(2.72 0.225)">
        <path id="路径_5" d="M27.307,9.019a12.416,12.416,0,0,0-2.785-4.6A14.254,14.254,0,0,0,15.5.079a15.08,15.08,0,0,0-9.665,2.3c-.279.181-.555.375-.818.575A12.471,12.471,0,0,0,.164,10.793,11.716,11.716,0,0,0,0,12.746H0A12.256,12.256,0,0,1,5.031,2.973c.263-.2.538-.393.816-.574A14.808,14.808,0,0,1,24.5,4.434a11.768,11.768,0,0,1,3.283,9.579,12.276,12.276,0,0,1-4.332,7.832l.013.035a12.922,12.922,0,0,0,2.573-2.934,11.744,11.744,0,0,0,1.777-4.928A11.4,11.4,0,0,0,27.307,9.019Z" transform="translate(0 0)" fill="#fdfdfd"/>
      </g>
      <g id="组_7" transform="translate(9.524 3.288)">
        <path id="路径_6" d="M15.074,3.75A8.954,8.954,0,0,0,9.5.2,9.467,9.467,0,0,0,2.85,1.26c-.131.077-.263.157-.39.24A8.432,8.432,0,0,0,0,3.923l.028.014A8.4,8.4,0,0,1,2.477,1.526c.126-.082.257-.164.389-.239A9.4,9.4,0,0,1,15.048,3.769a7.668,7.668,0,0,1,1.317,5.92,8.042,8.042,0,0,1-3.6,5.232c-.087.056-.175.112-.263.164a9.24,9.24,0,0,1-2.031.909l0,.033a9.278,9.278,0,0,0,2.051-.917c.089-.054.178-.109.265-.166A8.073,8.073,0,0,0,16.4,9.69a7.7,7.7,0,0,0-1.324-5.94Z" transform="translate(0 0)" fill="#fdfdfd"/>
      </g>
      <g id="组_8" transform="translate(6.231 1.494)">
        <path id="路径_7" d="M21.834,7.959a10.276,10.276,0,0,0-2.025-3.825,11.617,11.617,0,0,0-7.313-4A12.239,12.239,0,0,0,4.287,1.8l-.2.126A10.707,10.707,0,0,0,0,6.787L.048,6.8A10.617,10.617,0,0,1,4.107,1.953l.2-.125a12.122,12.122,0,0,1,15.48,2.327,9.9,9.9,0,0,1,2.269,7.9,10.336,10.336,0,0,1-4.741,7.131c-.117.076-.329.214-.45.287a12.036,12.036,0,0,1-8.915,1.383l0,.006a12.156,12.156,0,0,0,9.026-1.425c.121-.073.242-.148.359-.225a10.945,10.945,0,0,0,3.241-3.2,9.922,9.922,0,0,0,1.513-3.95A9.723,9.723,0,0,0,21.834,7.959Z" fill="#fdfdfd"/>
      </g>
      <g id="组_9" transform="translate(10.894 0.758)">
        <path id="路径_8" d="M10.79,25.695A77.539,77.539,0,0,0,8.045,14.468,72.981,72.981,0,0,0,3.894,3.91C2.515,1.2,1.377-.185.692.02A.481.481,0,0,0,.567.078h0C-.03.466-.181,2.341.236,5.294q.093.661.218,1.373l.178.018C-.025,3.1-.086.615.619.157A.452.452,0,0,1,.735.1C1.4-.1,2.441,1.261,3.813,3.958a71.949,71.949,0,0,1,4.2,10.519A77.512,77.512,0,0,1,10.759,25.7c.473,3.136.371,5-.242,5.4a.463.463,0,0,1-.119.055c-.7.209-1.794-1.3-3.232-4.2a71.328,71.328,0,0,1-3.634-9.439l-.263.043C5.9,25.632,9.048,31.679,10.434,31.266a.494.494,0,0,0,.127-.059C11.183,30.8,11.266,28.843,10.79,25.695Z" transform="translate(0)" fill="#fdfdfd"/>
      </g>
      <g id="组_10" transform="translate(14.966 4.29)">
        <path id="路径_9" d="M13.133.33c-.884-.7-2.612-.279-4.867,1.186h0A40.2,40.2,0,0,0,0,9.3l.006,0A40.189,40.189,0,0,1,8.285,1.542C10.527.085,12.195-.3,13.068.388c1.981,1.57-1,8.282-6.4,15.223l.23.179a43.479,43.479,0,0,0,5.868-9.628C13.99,3.185,14.121,1.113,13.133.33Z" fill="#fdfdfd"/>
      </g>
      <g id="组_11" transform="translate(14.59 5.52)">
        <path id="路径_10" d="M7.757,2.614A6.109,6.109,0,0,0,2.436.008V.041A6.078,6.078,0,0,1,7.73,2.633a5.306,5.306,0,0,1,.834,4.062A5.563,5.563,0,0,1,6.1,10.265c-.059.038-.12.077-.181.113a6.333,6.333,0,0,1-5.878.291L0,10.7a6.353,6.353,0,0,0,5.932-.29c.061-.037.122-.075.182-.114A5.6,5.6,0,0,0,8.6,6.7a5.337,5.337,0,0,0-.838-4.089Z" transform="translate(0 0)" fill="#fdfdfd"/>
      </g>
      <g id="组_13" transform="translate(3.451 1.067)">
        <path id="路径_11" d="M28.568,9.857a14.551,14.551,0,0,0-3.68-5.333A16.388,16.388,0,0,0,19.895,1.34a18.006,18.006,0,0,0-5.7-1.3A18.356,18.356,0,0,0,3.086,2.874c-.4.259-.789.537-1.159.827A15.571,15.571,0,0,0,0,5.485L.027,5.5A15.71,15.71,0,0,1,1.946,3.725c.37-.289.759-.567,1.157-.825C9.826-1.469,19.183-.761,24.866,4.547A13.769,13.769,0,0,1,29.4,15.8a14.559,14.559,0,0,1-6.861,10.81c-.087.057-.173.112-.263.167q-.493.308-1,.579l-.007.04q.519-.279,1.022-.593c.089-.056.175-.11.263-.167a15.75,15.75,0,0,0,4.875-4.9,13.407,13.407,0,0,0,2-5.938A13.018,13.018,0,0,0,28.568,9.857Z" fill="#fdfdfd"/>
      </g>
      <g id="组_14" transform="translate(19.123 9.375)">
        <path id="路径_12" d="M13.216,2.675A3.654,3.654,0,0,0,11.085.683a14.391,14.391,0,0,0-6.95-.5A30.453,30.453,0,0,0,.392.911L.4.94A30.4,30.4,0,0,1,4.139.213,14.035,14.035,0,0,1,10.991.7a3.661,3.661,0,0,1,2.149,1.949c.493,1.231.116,2.772-1.093,4.457a20.309,20.309,0,0,1-5.47,4.788A37.552,37.552,0,0,1,.131,15.153L0,15.2l.022.153L.169,15.3a37.6,37.6,0,0,0,6.445-3.288A20.511,20.511,0,0,0,12.1,7.152C13.318,5.457,13.714,3.917,13.216,2.675Z" transform="translate(0 0)" fill="#fdfdfd"/>
      </g>
      <g id="组_15" transform="translate(23.788 12.741)">
        <path id="路径_13" d="M7.566,5.288C6.254,3.289,3.514,1.413.009,0L0,.037C3.485,1.45,6.2,3.324,7.51,5.316a3.967,3.967,0,0,1,.714,3.126A4.121,4.121,0,0,1,6.25,10.989a9.539,9.539,0,0,1-1.771.884l.014.1a9.766,9.766,0,0,0,1.782-.894A4.314,4.314,0,0,0,8.307,8.464,4.078,4.078,0,0,0,7.566,5.288Z" fill="#fdfdfd"/>
      </g>
      <g id="组_17" transform="translate(14.38 8.076)">
        <path id="路径_14" d="M5.558,1.347A3.006,3.006,0,0,0,3.619.062,3.1,3.1,0,0,0,1.312.5,2.875,2.875,0,0,0,.036,2.366C.02,2.448.009,2.53,0,2.611l.033,0c.009-.079.02-.157.035-.235A2.843,2.843,0,0,1,1.329.528a3.055,3.055,0,0,1,4.2.836,2.761,2.761,0,0,1,.412,2.1A2.85,2.85,0,0,1,4.689,5.283L4.6,5.338a3.115,3.115,0,0,1-2.777.2L1.8,5.567a3.147,3.147,0,0,0,.574.176,3.113,3.113,0,0,0,2.242-.378A2.889,2.889,0,0,0,5.976,3.474,2.792,2.792,0,0,0,5.558,1.347Z" transform="translate(0 0)" fill="#fdfdfd"/>
      </g>
      <g id="组_18" transform="translate(17.427 0.523)">
        <path id="路径_15" d="M3.12,0a.147.147,0,0,0-.11.027h0C2.427.408,1.237,4.582,0,10.38l.011,0C1.232,4.667,2.436.426,3,.058A.116.116,0,0,1,3.087.035c.3.063.245,1.956-.062,4.886-.042.4-.09.828-.143,1.267l.069-.052C3.351,2.562,3.5.081,3.12,0Z" transform="translate(0 0)" fill="#fdfdfd"/>
      </g>
      <g id="组_19" transform="translate(22.66 15.056)">
        <path id="路径_16" d="M3.385,2.719A9.7,9.7,0,0,0,.119,0L0,.1A9.781,9.781,0,0,1,3.316,2.858a7.785,7.785,0,0,1,1.525,6.1A9.022,9.022,0,0,1,.909,14.8l.015.027a10.366,10.366,0,0,0,2.563-2.563A8.6,8.6,0,0,0,4.915,8.842a7.816,7.816,0,0,0-1.53-6.123Z" fill="#fdfdfd"/>
      </g>
      <g id="组_20" transform="translate(9.324 8.38)">
        <path id="路径_17" d="M21.647,11A10.951,10.951,0,0,0,19.56,5.428a14.917,14.917,0,0,0-5.231-4.357A13.919,13.919,0,0,0,11.424,0l-.073.158A15.022,15.022,0,0,1,14.442,1.3c4.142,2.086,6.8,5.748,7.11,9.794.3,3.943-1.66,7.632-5.526,10.384-.2.146-.414.289-.624.426A15.845,15.845,0,0,1,2.365,23.985a11.243,11.243,0,0,1-2.324-.917L0,23.146a15.471,15.471,0,0,0,2.356.869,15.7,15.7,0,0,0,6.461.42,16.25,16.25,0,0,0,6.6-2.5c.209-.136.42-.279.624-.426a13.814,13.814,0,0,0,4.435-4.957A10.6,10.6,0,0,0,21.647,11Z" fill="#fdfdfd"/>
      </g>
      <g id="组_54" transform="translate(17.225 10.661)">
        <path id="路径_42" d="M.171.674a.365.365,0,1,1,.5-.116.365.365,0,0,1-.5.116Z" transform="translate(0 0)" fill="#fdfdfd"/>
      </g>
      <g id="组_55" transform="translate(20.486 12.429)">
        <path id="路径_43" d="M.2.773A.419.419,0,1,1,.773.641.419.419,0,0,1,.2.773Z" transform="translate(0 0)" fill="#fdfdfd"/>
      </g>
      <g id="组_56" transform="translate(10.201 2.806)">
        <path id="路径_44" d="M.37,1.452a.79.79,0,1,1,.6.1A.785.785,0,0,1,.37,1.452Z" transform="translate(0 0)" fill="#fdfdfd"/>
      </g>
      <g id="组_57" transform="translate(27.214 9.954)">
        <path id="路径_45" d="M.185.58A.287.287,0,1,1,.578.489.287.287,0,0,1,.185.58Z" transform="translate(-0.049 -0.048)" fill="#fdfdfd"/>
      </g>
      <g id="组_58" transform="translate(28.07 6.522)">
        <path id="路径_46" d="M.227.54A.227.227,0,1,1,.54.468.227.227,0,0,1,.227.54Z" transform="translate(-0.12 -0.12)" fill="#fdfdfd"/>
      </g>
      <g id="组_59" transform="translate(22.229 7.938)">
        <path id="路径_47" d="M.227.54A.227.227,0,1,1,.54.468.227.227,0,0,1,.227.54Z" transform="translate(-0.12 -0.12)" fill="#fdfdfd"/>
      </g>
      <g id="组_60" transform="translate(32.38 12.248)">
        <path id="路径_48" d="M.227.54A.227.227,0,1,1,.54.468.227.227,0,0,1,.227.54Z" transform="translate(-0.12 -0.12)" fill="#fdfdfd"/>
      </g>
      <g id="组_61" transform="translate(32.475 19.196)">
        <path id="路径_49" d="M.227.54A.227.227,0,1,1,.54.468.227.227,0,0,1,.227.54Z" transform="translate(-0.12 -0.12)" fill="#fdfdfd"/>
      </g>
      <g id="组_62" transform="translate(1.12 7.484)">
        <path id="路径_50" d="M.227.54A.227.227,0,1,1,.54.468.227.227,0,0,1,.227.54Z" transform="translate(-0.12 -0.12)" fill="#fdfdfd"/>
      </g>
      <g id="组_63" transform="translate(2.531 7.814)">
        <path id="路径_51" d="M.235.531A.214.214,0,1,1,.53.465.214.214,0,0,1,.235.531Z" transform="translate(-0.135 -0.135)" fill="#fdfdfd"/>
      </g>
      <g id="组_64" transform="translate(3.447 6.509)">
        <path id="路径_52" d="M.235.531A.214.214,0,1,1,.53.465.214.214,0,0,1,.235.531Z" transform="translate(-0.135 -0.135)" fill="#fdfdfd"/>
      </g>
      <g id="组_65" transform="translate(9.005 4.176)">
        <path id="路径_53" d="M.156.6A.324.324,0,1,1,.6.5.324.324,0,0,1,.156.6Z" transform="translate(-0.004 -0.004)" fill="#fdfdfd"/>
      </g>
      <g id="组_66" transform="translate(7.255 5.501)">
        <path id="路径_54" d="M.176.585A.3.3,0,1,1,.585.491.3.3,0,0,1,.176.585Z" transform="translate(-0.037 -0.037)" fill="#fdfdfd"/>
      </g>
      <g id="组_67" transform="translate(23.211 8.948)">
        <path id="路径_55" d="M.318,1.249a.679.679,0,1,1,.512.086.675.675,0,0,1-.512-.086Z" transform="translate(0 0)" fill="#fdfdfd"/>
      </g>
      <g id="组_68" transform="translate(9.284 31.409)">
        <path id="路径_56" d="M.226.541A.229.229,0,1,1,.4.57.229.229,0,0,1,.226.541Z" transform="translate(-0.118 -0.118)" fill="#fdfdfd"/>
      </g>
      <g id="组_69" transform="translate(9.476 7.156)">
        <path id="路径_57" d="M.227.539A.227.227,0,1,1,.4.568.227.227,0,0,1,.227.539Z" transform="translate(-0.12 -0.12)" fill="#fdfdfd"/>
      </g>
      <g id="组_70" transform="translate(22.008 4.444)">
        <path id="路径_58" d="M.328,1.286a.7.7,0,1,1,.527.088A.695.695,0,0,1,.328,1.286Z" transform="translate(0 0)" fill="#fdfdfd"/>
      </g>
      <g id="组_71" transform="translate(20.988 19.228)">
        <path id="路径_59" d="M.349,1.371a.746.746,0,1,1,.562.094.741.741,0,0,1-.562-.094Z" transform="translate(0 0)" fill="#fdfdfd"/>
      </g>
      <g id="组_72" transform="translate(23.677 16.833)">
        <path id="路径_60" d="M.26.51A.181.181,0,1,1,.4.533.181.181,0,0,1,.26.51Z" transform="translate(-0.174 -0.174)" fill="#fdfdfd"/>
      </g>
      <g id="组_73" transform="translate(30.148 9.855)">
        <path id="路径_61" d="M.26.51A.181.181,0,1,1,.4.533.181.181,0,0,1,.26.51Z" transform="translate(-0.174 -0.174)" fill="#fdfdfd"/>
      </g>
      <g id="组_74" transform="translate(31.972 21.393)">
        <path id="路径_62" d="M.26.51A.181.181,0,1,1,.4.533.181.181,0,0,1,.26.51Z" transform="translate(-0.174 -0.174)" fill="#fdfdfd"/>
      </g>
      <g id="组_75" transform="translate(18.841 0.812)">
        <path id="路径_63" d="M.227.54A.227.227,0,1,1,.54.468.227.227,0,0,1,.227.54Z" transform="translate(-0.12 -0.12)" fill="#fdfdfd"/>
      </g>
      <g id="组_76" transform="translate(12.297 0.99)">
        <path id="路径_64" d="M.227.54A.227.227,0,1,1,.54.468.227.227,0,0,1,.227.54Z" transform="translate(-0.12 -0.12)" fill="#fdfdfd"/>
      </g>
      <g id="组_77" transform="translate(21.823 30.687)">
        <path id="路径_65" d="M.21.555A.25.25,0,1,1,.4.587.251.251,0,0,1,.21.555Z" transform="translate(-0.092 -0.091)" fill="#fdfdfd"/>
      </g>
      <g id="组_78" transform="translate(5.639 9.1)">
        <path id="路径_66" d="M.092.187A.286.286,0,1,1,.058.4.286.286,0,0,1,.092.187Z" transform="translate(-0.05 -0.05)" fill="#fdfdfd"/>
      </g>
      <g id="组_79" transform="translate(8.675 5.49)">
        <path id="路径_67" d="M.092.187A.286.286,0,1,1,.058.4.286.286,0,0,1,.092.187Z" transform="translate(-0.05 -0.05)" fill="#fdfdfd"/>
      </g>
      <g id="组_80" transform="translate(23.054 10.991)">
        <path id="路径_68" d="M.092.187A.286.286,0,1,1,.058.4.286.286,0,0,1,.092.187Z" transform="translate(-0.05 -0.05)" fill="#fdfdfd"/>
      </g>
      <g id="组_81" transform="translate(25.284 13.454)">
        <path id="路径_69" d="M.092.187A.286.286,0,1,1,.058.4.286.286,0,0,1,.092.187Z" transform="translate(-0.05 -0.05)" fill="#fdfdfd"/>
      </g>
      <g id="组_82" transform="translate(22.87 15.914)">
        <path id="路径_70" d="M.092.187A.286.286,0,1,1,.058.4.286.286,0,0,1,.092.187Z" transform="translate(-0.05 -0.05)" fill="#fdfdfd"/>
      </g>
      <g id="组_83" transform="translate(3.697 5.815)">
        <path id="路径_71" d="M.092.187A.286.286,0,1,1,.058.4.286.286,0,0,1,.092.187Z" transform="translate(-0.05 -0.05)" fill="#fdfdfd"/>
      </g>
      <g id="组_84" transform="translate(27.678 23.529)">
        <path id="路径_72" d="M.092.187A.286.286,0,1,1,.058.4.286.286,0,0,1,.092.187Z" transform="translate(-0.05 -0.05)" fill="#fdfdfd"/>
      </g>
      <g id="组_85" transform="translate(26.591 11.589)">
        <path id="路径_73" d="M.092.3A.623.623,0,1,1,.017.77.627.627,0,0,1,.092.3Z" transform="translate(0 0)" fill="#fdfdfd"/>
      </g>
      <g id="组_86" transform="translate(1.991 8.975)">
        <path id="路径_74" d="M.054.195a.393.393,0,1,1,.14.537A.393.393,0,0,1,.054.195Z" transform="translate(0 0)" fill="#fdfdfd"/>
      </g>
      <g id="组_87" transform="translate(13.961 23.137)">
        <path id="路径_75" d="M.112.4A.81.81,0,1,1,.4,1.505.811.811,0,0,1,.112.4Z" transform="translate(0 0)" fill="#fdfdfd"/>
      </g>
      <g id="组_88" transform="translate(30.733 18.855)">
        <path id="路径_76" d="M.189.256A.192.192,0,1,1,.254.518.192.192,0,0,1,.189.256Z" transform="translate(-0.162 -0.162)" fill="#fdfdfd"/>
      </g>
      <g id="组_89" transform="translate(30.835 15.233)">
        <path id="路径_77" d="M.189.256A.192.192,0,1,1,.254.518.192.192,0,0,1,.189.256Z" transform="translate(-0.162 -0.162)" fill="#fdfdfd"/>
      </g>
      <g id="组_90" transform="translate(5.046 5.799)">
        <path id="路径_78" d="M.189.256A.192.192,0,1,1,.254.518.192.192,0,0,1,.189.256Z" transform="translate(-0.162 -0.162)" fill="#fdfdfd"/>
      </g>
      <g id="组_91" transform="translate(25.716 4.441)">
        <path id="路径_79" d="M.189.256A.192.192,0,1,1,.254.518.192.192,0,0,1,.189.256Z" transform="translate(-0.162 -0.162)" fill="#fdfdfd"/>
      </g>
      <g id="组_92" transform="translate(26.447 30.591)">
        <path id="路径_80" d="M.189.256A.192.192,0,1,1,.254.518.192.192,0,0,1,.189.256Z" transform="translate(-0.162 -0.162)" fill="#fdfdfd"/>
      </g>
      <g id="组_93" transform="translate(15.536 0)">
        <path id="路径_81" d="M.189.256A.192.192,0,1,1,.254.518.192.192,0,0,1,.189.256Z" transform="translate(-0.162 -0.162)" fill="#fdfdfd"/>
      </g>
      <g id="组_94" transform="translate(20.154 1.407)">
        <path id="路径_82" d="M.1.323A.674.674,0,1,1,.019.834.679.679,0,0,1,.1.323Z" transform="translate(0)" fill="#fdfdfd"/>
      </g>
      <g id="组_95" transform="translate(14.171 3.238)">
        <path id="路径_83" d="M.051.168A.349.349,0,1,1,.01.431.349.349,0,0,1,.051.168Z" transform="translate(0)" fill="#fdfdfd"/>
      </g>
      <g id="组_96" transform="translate(29.822 16.705)">
        <path id="路径_84" d="M.1.318a.666.666,0,1,1-.08.5A.67.67,0,0,1,.1.318Z" transform="translate(0 0)" fill="#fdfdfd"/>
      </g>
      <g id="组_97" transform="translate(27.271 10.595)">
        <path id="路径_85" d="M.054.175A.366.366,0,1,1,.01.452.366.366,0,0,1,.054.175Z" transform="translate(0)" fill="#fdfdfd"/>
      </g>
      <g id="组_98" transform="translate(23.309 17.847)">
        <path id="路径_86" d="M.054.175a.366.366,0,1,1,.121.5A.366.366,0,0,1,.054.175Z" transform="translate(0)" fill="#fdfdfd"/>
      </g>
      <g id="组_99" transform="translate(30.56 22.092)">
        <path id="路径_87" d="M.054.175a.366.366,0,1,1,.121.5.366.366,0,0,1-.121-.5Z" transform="translate(0)" fill="#fdfdfd"/>
      </g>
      <g id="组_100" transform="translate(27.848 25.53)">
        <path id="路径_88" d="M.054.175a.366.366,0,1,1,.121.5.366.366,0,0,1-.121-.5Z" transform="translate(0)" fill="#fdfdfd"/>
      </g>
      <g id="组_101" transform="translate(10.813 6.811)">
        <path id="路径_89" d="M.1.314a.656.656,0,1,1,.218.9A.658.658,0,0,1,.1.314Z" transform="translate(0 0)" fill="#fdfdfd"/>
      </g>
      <g id="组_102" transform="translate(24.381 18.958)">
        <path id="路径_90" d="M.054.175a.366.366,0,1,1,.121.5.366.366,0,0,1-.121-.5Z" transform="translate(0)" fill="#fdfdfd"/>
      </g>
      <g id="组_103" transform="translate(27.975 4.581)">
        <path id="路径_91" d="M.054.175a.366.366,0,1,1,.121.5.366.366,0,0,1-.121-.5Z" transform="translate(0)" fill="#fdfdfd"/>
      </g>
      <g id="组_104" transform="translate(32.137 13.95)">
        <path id="路径_92" d="M.054.175a.366.366,0,1,1,.121.5A.366.366,0,0,1,.054.175Z" transform="translate(0)" fill="#fdfdfd"/>
      </g>
      <g id="组_105" transform="translate(5.475 7.516)">
        <path id="路径_93" d="M.118.384a.8.8,0,1,1,.267,1.1A.805.805,0,0,1,.118.384Z" transform="translate(0 0)" fill="#fdfdfd"/>
      </g>
      <g id="组_106" transform="translate(18.386 23.968)">
        <path id="路径_94" d="M.109.353A.738.738,0,1,1,.353,1.365.74.74,0,0,1,.109.353Z" transform="translate(0 0)" fill="#fdfdfd"/>
      </g>
      <g id="组_107" transform="translate(27.573 24.071)">
        <path id="路径_95" d="M.094.305a.639.639,0,1,1,.212.877A.641.641,0,0,1,.094.305Z" transform="translate(0 0)" fill="#fdfdfd"/>
      </g>
      <g id="组_108" transform="translate(29.31 21.682)">
        <path id="路径_96" d="M.062.167A.314.314,0,1,1,.166.6a.314.314,0,0,1-.1-.431Z" transform="translate(-0.016 -0.016)" fill="#fdfdfd"/>
      </g>
      <g id="组_109" transform="translate(13.44 17.411)">
        <path id="路径_97" d="M.124.4a.844.844,0,1,1-.1.639A.849.849,0,0,1,.124.4Z" transform="translate(0 0)" fill="#fdfdfd"/>
      </g>
      <g id="组_110" transform="translate(15.261 3.914)">
        <path id="路径_98" d="M.2.262A.181.181,0,1,1,.262.51.181.181,0,0,1,.2.262Z" transform="translate(-0.175 -0.175)" fill="#fdfdfd"/>
      </g>
      <g id="组_111" transform="translate(5.612 4.102)">
        <path id="路径_99" d="M.2.262A.181.181,0,1,1,.262.51.181.181,0,0,1,.2.262Z" transform="translate(-0.175 -0.175)" fill="#fdfdfd"/>
      </g>
      <g id="组_112" transform="translate(14.159 22.255)">
        <path id="路径_100" d="M.2.262A.181.181,0,1,1,.262.51.181.181,0,0,1,.2.262Z" transform="translate(-0.175 -0.175)" fill="#fdfdfd"/>
      </g>
      <g id="组_113" transform="translate(18.319 23.499)">
        <path id="路径_101" d="M.2.262A.181.181,0,1,1,.262.51.181.181,0,0,1,.2.262Z" transform="translate(-0.175 -0.175)" fill="#fdfdfd"/>
      </g>
      <g id="组_114" transform="translate(21.6 13.346)">
        <path id="路径_102" d="M.2.262A.181.181,0,1,1,.262.51.181.181,0,0,1,.2.262Z" transform="translate(-0.175 -0.175)" fill="#fdfdfd"/>
      </g>
      <g id="组_115" transform="translate(28.284 22.62)">
        <path id="路径_103" d="M.2.262A.181.181,0,1,1,.262.51.181.181,0,0,1,.2.262Z" transform="translate(-0.175 -0.175)" fill="#fdfdfd"/>
      </g>
      <g id="组_116" transform="translate(25.723 25.37)">
        <path id="路径_104" d="M.2.262A.181.181,0,1,1,.262.51.181.181,0,0,1,.2.262Z" transform="translate(-0.175 -0.175)" fill="#fdfdfd"/>
      </g>
      <g id="组_117" transform="translate(5.502 25.48)">
        <path id="路径_105" d="M.289.323A.1.1,0,1,1,.321.455.1.1,0,0,1,.289.323Z" transform="translate(-0.275 -0.275)" fill="#fdfdfd"/>
      </g>
      <g id="组_118" transform="translate(31.542 23.2)">
        <path id="路径_106" d="M.289.323A.1.1,0,1,1,.321.455.1.1,0,0,1,.289.323Z" transform="translate(-0.275 -0.275)" fill="#fdfdfd"/>
      </g>
      <g id="组_119" transform="translate(18.976 19.801)">
        <path id="路径_107" d="M.289.323A.1.1,0,1,1,.321.455.1.1,0,0,1,.289.323Z" transform="translate(-0.275 -0.275)" fill="#fdfdfd"/>
      </g>
      <g id="组_120" transform="translate(28.04 23.254)">
        <path id="路径_108" d="M.289.323A.1.1,0,1,1,.321.455.1.1,0,0,1,.289.323Z" transform="translate(-0.275 -0.275)" fill="#fdfdfd"/>
      </g>
      <g id="组_121" transform="translate(19.821 21.86)">
        <path id="路径_109" d="M.289.323A.1.1,0,1,1,.321.455.1.1,0,0,1,.289.323Z" transform="translate(-0.275 -0.275)" fill="#fdfdfd"/>
      </g>
      <g id="组_122" transform="translate(20.494 17.018)">
        <path id="路径_110" d="M.289.323A.1.1,0,1,1,.321.455.1.1,0,0,1,.289.323Z" transform="translate(-0.275 -0.275)" fill="#fdfdfd"/>
      </g>
      <g id="组_123" transform="translate(29.796 23.84)">
        <path id="路径_111" d="M.289.323A.1.1,0,1,1,.321.455.1.1,0,0,1,.289.323Z" transform="translate(-0.275 -0.275)" fill="#fdfdfd"/>
      </g>
      <g id="组_124" transform="translate(23.748 31.119)">
        <path id="路径_112" d="M.289.323A.1.1,0,1,1,.321.455.1.1,0,0,1,.289.323Z" transform="translate(-0.275 -0.275)" fill="#fdfdfd"/>
      </g>
      <g id="组_125" transform="translate(32.523 20.952)">
        <path id="路径_113" d="M.289.323A.1.1,0,1,1,.321.455.1.1,0,0,1,.289.323Z" transform="translate(-0.275 -0.275)" fill="#fdfdfd"/>
      </g>
      <g id="组_126" transform="translate(15.024 13.681)">
        <path id="路径_114" d="M.289.323A.1.1,0,1,1,.321.455.1.1,0,0,1,.289.323Z" transform="translate(-0.275 -0.275)" fill="#fdfdfd"/>
      </g>
      <g id="组_127" transform="translate(27.979 4.463)">
        <path id="路径_115" d="M.289.323A.1.1,0,1,1,.321.455.1.1,0,0,1,.289.323Z" transform="translate(-0.275 -0.275)" fill="#fdfdfd"/>
      </g>
      <g id="组_128" transform="translate(13.51 0.359)">
        <path id="路径_116" d="M.289.323A.1.1,0,1,1,.321.455.1.1,0,0,1,.289.323Z" transform="translate(-0.275 -0.275)" fill="#fdfdfd"/>
      </g>
      <g id="组_129" transform="translate(2.794 13.078)">
        <path id="路径_117" d="M.289.323A.1.1,0,1,1,.321.455.1.1,0,0,1,.289.323Z" transform="translate(-0.275 -0.275)" fill="#fdfdfd"/>
      </g>
      <g id="组_130" transform="translate(14.629 19.556)">
        <path id="路径_118" d="M.289.323A.1.1,0,1,1,.321.455.1.1,0,0,1,.289.323Z" transform="translate(-0.275 -0.275)" fill="#fdfdfd"/>
      </g>
      <g id="组_131" transform="translate(32.646 12.04)">
        <path id="路径_119" d="M.289.323A.1.1,0,1,1,.321.455.1.1,0,0,1,.289.323Z" transform="translate(-0.275 -0.275)" fill="#fdfdfd"/>
      </g>
      <g id="组_132" transform="translate(23.599 29.902)">
        <path id="路径_120" d="M.237.286a.147.147,0,1,1,.049.2.147.147,0,0,1-.049-.2Z" transform="translate(-0.215 -0.215)" fill="#fdfdfd"/>
      </g>
      <g id="组_133" transform="translate(17.53 21.294)">
        <path id="路径_121" d="M.289.323A.1.1,0,1,1,.321.455.1.1,0,0,1,.289.323Z" transform="translate(-0.275 -0.275)" fill="#fdfdfd"/>
      </g>
      <g id="组_134" transform="translate(25.901 29.405)">
        <path id="路径_122" d="M.289.323A.1.1,0,1,1,.321.455.1.1,0,0,1,.289.323Z" transform="translate(-0.275 -0.275)" fill="#fdfdfd"/>
      </g>
      <g id="组_135" transform="translate(30.201 25.051)">
        <path id="路径_123" d="M.2.262A.181.181,0,1,1,.262.51.181.181,0,0,1,.2.262Z" transform="translate(-0.175 -0.175)" fill="#fdfdfd"/>
      </g>
      <g id="组_136" transform="translate(7.54 4.317)">
        <path id="路径_124" d="M.2.262A.181.181,0,1,1,.262.51.181.181,0,0,1,.2.262Z" transform="translate(-0.175 -0.175)" fill="#fdfdfd"/>
      </g>
      <g id="组_137" transform="translate(24.118 27.868)">
        <path id="路径_125" d="M.086.278A.58.58,0,1,1,.016.717.583.583,0,0,1,.086.278Z" transform="translate(0 0)" fill="#fdfdfd"/>
      </g>
      <g id="组_138" transform="translate(0 15.106)">
        <path id="路径_126" d="M.2.262A.181.181,0,1,1,.262.51.181.181,0,0,1,.2.262Z" transform="translate(-0.175 -0.175)" fill="#fdfdfd"/>
      </g>
      <g id="组_139" transform="translate(18.302 9.274)">
        <path id="路径_127" d="M.2.262A.181.181,0,1,1,.262.51.181.181,0,0,1,.2.262Z" transform="translate(-0.175 -0.175)" fill="#fdfdfd"/>
      </g>
      <g id="组_140" transform="translate(0.29 18.041)">
        <path id="路径_128" d="M.2.262A.181.181,0,1,1,.262.51.181.181,0,0,1,.2.262Z" transform="translate(-0.175 -0.175)" fill="#fdfdfd"/>
      </g>
      <g id="组_141" transform="translate(17.009 5.511)">
        <path id="路径_129" d="M.2.262A.181.181,0,1,1,.261.51.181.181,0,0,1,.2.262Z" transform="translate(-0.175 -0.175)" fill="#fdfdfd"/>
      </g>
      <g id="组_142" transform="translate(18.638 2.911)">
        <path id="路径_130" d="M.268.307A.117.117,0,1,1,.307.468.117.117,0,0,1,.268.307Z" transform="translate(-0.251 -0.251)" fill="#fdfdfd"/>
      </g>
      <g id="组_143" transform="translate(17.714 0.039)">
        <path id="路径_131" d="M.268.308A.117.117,0,1,1,.255.4.117.117,0,0,1,.268.308Z" transform="translate(-0.251 -0.251)" fill="#fdfdfd"/>
      </g>
      <g id="组_144" transform="translate(16.619 0.502)">
        <path id="路径_132" d="M.268.308A.117.117,0,1,1,.255.4.117.117,0,0,1,.268.308Z" transform="translate(-0.251 -0.251)" fill="#fdfdfd"/>
      </g>
      <g id="组_145" transform="translate(21.795 1.635)">
        <path id="路径_133" d="M.268.307A.117.117,0,1,1,.307.468.117.117,0,0,1,.268.307Z" transform="translate(-0.251 -0.251)" fill="#fdfdfd"/>
      </g>
      <g id="组_146" transform="translate(14.624 16.222)">
        <path id="路径_134" d="M.2.262A.181.181,0,1,1,.18.4.181.181,0,0,1,.2.262Z" transform="translate(-0.175 -0.175)" fill="#fdfdfd"/>
      </g>
      <g id="组_147" transform="translate(23.953 10.634)">
        <path id="路径_135" d="M.2.262A.181.181,0,1,1,.262.51.181.181,0,0,1,.2.262Z" transform="translate(-0.175 -0.175)" fill="#fdfdfd"/>
      </g>
      <g id="组_148" transform="translate(20.951 4.904)">
        <path id="路径_136" d="M.2.262A.181.181,0,1,1,.262.51.181.181,0,0,1,.2.262Z" transform="translate(-0.175 -0.175)" fill="#fdfdfd"/>
      </g>
      <g id="组_149" transform="translate(27.841 4.167)">
        <path id="路径_137" d="M.2.262A.181.181,0,1,1,.261.51.181.181,0,0,1,.2.262Z" transform="translate(-0.175 -0.175)" fill="#fdfdfd"/>
      </g>
      <g id="组_150" transform="translate(24.072 19.303)">
        <path id="路径_138" d="M.2.262A.181.181,0,1,1,.261.51.181.181,0,0,1,.2.262Z" transform="translate(-0.175 -0.175)" fill="#fdfdfd"/>
      </g>
      <g id="组_151" transform="translate(15.701 13.329)">
        <path id="路径_139" d="M.2.262A.181.181,0,1,1,.262.51.181.181,0,0,1,.2.262Z" transform="translate(-0.175 -0.175)" fill="#fdfdfd"/>
      </g>
      <g id="组_152" transform="translate(19.987 7.723)">
        <path id="路径_140" d="M.111.362a.755.755,0,1,1-.09.572A.76.76,0,0,1,.111.362Z" transform="translate(0 0)" fill="#fdfdfd"/>
      </g>
      <g id="组_153" transform="translate(27.935 19.314)">
        <path id="路径_141" d="M.062.2A.419.419,0,1,1,.2.775.419.419,0,0,1,.062.2Z" transform="translate(0 0)" fill="#fdfdfd"/>
      </g>
      <g id="组_154" transform="translate(24.445 20.963)">
        <path id="路径_142" d="M.11.357A.748.748,0,1,1,.358,1.384.75.75,0,0,1,.11.357Z" transform="translate(0 0)" fill="#fdfdfd"/>
      </g>
      <g id="组_155" transform="translate(21.918 14.304)">
        <path id="路径_143" d="M.118.383a.8.8,0,1,1,.266,1.1A.8.8,0,0,1,.118.383Z" transform="translate(0 0)" fill="#fdfdfd"/>
      </g>
      <g id="组_156" transform="translate(26.786 19.171)">
        <path id="路径_144" d="M.053.174A.363.363,0,1,1,.01.448.363.363,0,0,1,.053.174Z" transform="translate(0 0)" fill="#fdfdfd"/>
      </g>
      <g id="组_157" transform="translate(24.541 2.067)">
        <path id="路径_145" d="M.053.174A.363.363,0,1,1,.01.448.363.363,0,0,1,.053.174Z" transform="translate(0 0)" fill="#fdfdfd"/>
      </g>
      <g id="组_158" transform="translate(14.801 5.584)">
        <path id="路径_146" d="M.109.355A.741.741,0,1,1,.021.917.746.746,0,0,1,.109.355Z" transform="translate(0)" fill="#fdfdfd"/>
      </g>
      <g id="组_159" transform="translate(17.617 8.251)">
        <path id="路径_147" d="M.117.2A.262.262,0,1,1,.086.4.262.262,0,0,1,.117.2Z" transform="translate(-0.078 -0.078)" fill="#fdfdfd"/>
      </g>
      <g id="组_160" transform="translate(20.658 15.259)">
        <path id="路径_148" d="M.117.2A.262.262,0,1,1,.086.4.262.262,0,0,1,.117.2Z" transform="translate(-0.078 -0.078)" fill="#fdfdfd"/>
      </g>
      <g id="组_161" transform="translate(31.879 19.224)">
        <path id="路径_149" d="M.117.2A.262.262,0,1,1,.086.4.262.262,0,0,1,.117.2Z" transform="translate(-0.078 -0.078)" fill="#fdfdfd"/>
      </g>
      <g id="组_162" transform="translate(31.295 18.55)">
        <path id="路径_150" d="M.117.2A.262.262,0,1,1,.086.4.262.262,0,0,1,.117.2Z" transform="translate(-0.078 -0.078)" fill="#fdfdfd"/>
      </g>
      <g id="组_163" transform="translate(21.239 22.194)">
        <path id="路径_151" d="M.117.2A.262.262,0,1,1,.086.4.262.262,0,0,1,.117.2Z" transform="translate(-0.078 -0.078)" fill="#fdfdfd"/>
      </g>
      <g id="组_164" transform="translate(20.282 6.563)">
        <path id="路径_152" d="M.117.2A.262.262,0,1,1,.086.4.262.262,0,0,1,.117.2Z" transform="translate(-0.078 -0.078)" fill="#fdfdfd"/>
      </g>
      <g id="组_165" transform="translate(27.724 25.967)">
        <path id="路径_153" d="M.16.234a.22.22,0,1,1,.073.3A.22.22,0,0,1,.16.234Z" transform="translate(-0.128 -0.128)" fill="#fdfdfd"/>
      </g>
      <g id="组_166" transform="translate(14.609 19.192)">
        <path id="路径_154" d="M.224.277A.16.16,0,1,1,.277.5.16.16,0,0,1,.224.277Z" transform="translate(-0.2 -0.2)" fill="#fdfdfd"/>
      </g>
      <g id="组_167" transform="translate(24.293 11.263)">
        <path id="路径_155" d="M.224.277A.16.16,0,1,1,.277.5.16.16,0,0,1,.224.277Z" transform="translate(-0.2 -0.2)" fill="#fdfdfd"/>
      </g>
      <g id="组_168" transform="translate(21.191 6.701)">
        <path id="路径_156" d="M.2.264A.178.178,0,1,1,.183.4.178.178,0,0,1,.2.264Z" transform="translate(-0.178 -0.178)" fill="#fdfdfd"/>
      </g>
      <g id="组_169" transform="translate(20.43 6.013)">
        <path id="路径_157" d="M.223.276A.161.161,0,1,1,.2.4.161.161,0,0,1,.223.276Z" transform="translate(-0.2 -0.2)" fill="#fdfdfd"/>
      </g>
      <g id="组_170" transform="translate(15.713 0.634)">
        <path id="路径_158" d="M.088.286a.6.6,0,1,0,.826-.2A.6.6,0,0,0,.088.286Z" transform="translate(0 0)" fill="#fdfdfd"/>
      </g>
      <g id="组_171" transform="translate(30.992 14.067)">
        <path id="路径_159" d="M.223.276A.161.161,0,1,1,.2.4.161.161,0,0,1,.223.276Z" transform="translate(-0.2 -0.2)" fill="#fdfdfd"/>
      </g>
      <g id="组_172" transform="translate(30.046 10.557)">
        <path id="路径_160" d="M.089.29a.607.607,0,1,1,.2.833A.609.609,0,0,1,.089.29Z" transform="translate(0 0)" fill="#fdfdfd"/>
      </g>
      <g id="组_173" transform="translate(19.941 19.297)">
        <path id="路径_161" d="M.223.276A.16.16,0,1,1,.2.4.161.161,0,0,1,.223.276Z" transform="translate(-0.199 -0.2)" fill="#fdfdfd"/>
      </g>
      <g id="组_174" transform="translate(29.102 20.154)">
        <path id="路径_162" d="M.223.276A.161.161,0,1,1,.2.4.161.161,0,0,1,.223.276Z" transform="translate(-0.2 -0.2)" fill="#fdfdfd"/>
      </g>
      <g id="组_175" transform="translate(23.454 3.034)">
        <path id="路径_163" d="M.223.276A.161.161,0,1,1,.2.4.161.161,0,0,1,.223.276Z" transform="translate(-0.2 -0.2)" fill="#fdfdfd"/>
      </g>
      <g id="组_176" transform="translate(17.598 0.114)">
        <path id="路径_164" d="M.223.276A.161.161,0,1,1,.2.4.161.161,0,0,1,.223.276Z" transform="translate(-0.2 -0.2)" fill="#fdfdfd"/>
      </g>
      <g id="组_177" transform="translate(33.027 17.243)">
        <path id="路径_165" d="M.223.276A.161.161,0,1,1,.2.4.161.161,0,0,1,.223.276Z" transform="translate(-0.2 -0.2)" fill="#fdfdfd"/>
      </g>
      <g id="组_178" transform="translate(26.187 22.108)">
        <path id="路径_166" d="M.223.276A.161.161,0,1,1,.2.4.161.161,0,0,1,.223.276Z" transform="translate(-0.2 -0.2)" fill="#fdfdfd"/>
      </g>
      <g id="组_179" transform="translate(21.665 32.061)">
        <path id="路径_167" d="M.223.276A.161.161,0,1,1,.2.4.161.161,0,0,1,.223.276Z" transform="translate(-0.2 -0.2)" fill="#fdfdfd"/>
      </g>
      <g id="组_180" transform="translate(28.829 17.856)">
        <path id="路径_168" d="M.223.276A.161.161,0,1,1,.2.4.161.161,0,0,1,.223.276Z" transform="translate(-0.2 -0.2)" fill="#fdfdfd"/>
      </g>
      <g id="组_181" transform="translate(24.413 3.965)">
        <path id="路径_169" d="M.223.276A.161.161,0,1,1,.2.4.161.161,0,0,1,.223.276Z" transform="translate(-0.2 -0.2)" fill="#fdfdfd"/>
      </g>
      <g id="组_182" transform="translate(23.483 12.12)">
        <path id="路径_170" d="M.124.4A.845.845,0,1,1,.4,1.563.847.847,0,0,1,.124.4Z" transform="translate(0 0)" fill="#fdfdfd"/>
      </g>
      <g id="组_183" transform="translate(7.126 7.088)">
        <path id="路径_171" d="M.223.276A.161.161,0,1,1,.2.4.161.161,0,0,1,.223.276Z" transform="translate(-0.2 -0.2)" fill="#fdfdfd"/>
      </g>
      <g id="组_184" transform="translate(3.409 6.214)">
        <path id="路径_172" d="M.223.276A.161.161,0,1,1,.2.4.161.161,0,0,1,.223.276Z" transform="translate(-0.2 -0.2)" fill="#fdfdfd"/>
      </g>
      <g id="组_185" transform="translate(4.09 4.502)">
        <path id="路径_173" d="M.223.276A.161.161,0,1,1,.2.4.161.161,0,0,1,.223.276Z" transform="translate(-0.2 -0.2)" fill="#fdfdfd"/>
      </g>
      <g id="组_186" transform="translate(19.529 10.319)">
        <path id="路径_174" d="M.223.276A.161.161,0,1,1,.2.4.161.161,0,0,1,.223.276Z" transform="translate(-0.2 -0.2)" fill="#fdfdfd"/>
      </g>
      <g id="组_187" transform="translate(14.413 10.772)">
        <path id="路径_175" d="M.223.276A.161.161,0,1,1,.2.4.161.161,0,0,1,.223.276Z" transform="translate(-0.2 -0.2)" fill="#fdfdfd"/>
      </g>
      <g id="组_188" transform="translate(33.074 15.635)">
        <path id="路径_176" d="M.223.276A.161.161,0,1,1,.2.4.161.161,0,0,1,.223.276Z" transform="translate(-0.2 -0.2)" fill="#fdfdfd"/>
      </g>
      <g id="组_189" transform="translate(22.817 2.395)">
        <path id="路径_177" d="M.223.276A.161.161,0,1,1,.2.4.161.161,0,0,1,.223.276Z" transform="translate(-0.2 -0.2)" fill="#fdfdfd"/>
      </g>
      <g id="组_190" transform="translate(15.452 12.882)">
        <path id="路径_178" d="M.112.363A.759.759,0,1,1,.364,1.4.761.761,0,0,1,.112.363Z" transform="translate(0 0)" fill="#fdfdfd"/>
      </g>
      <g id="组_191" transform="translate(24.608 14.634)">
        <path id="路径_179" d="M.223.276A.161.161,0,1,1,.2.4.161.161,0,0,1,.223.276Z" transform="translate(-0.2 -0.2)" fill="#fdfdfd"/>
      </g>
      <g id="组_192" transform="translate(30.615 24.721)">
        <path id="路径_180" d="M.223.276A.161.161,0,1,1,.2.4.161.161,0,0,1,.223.276Z" transform="translate(-0.2 -0.2)" fill="#fdfdfd"/>
      </g>
      <g id="组_193" transform="translate(7.282 2.433)">
        <path id="路径_181" d="M.223.276A.161.161,0,1,1,.2.4.161.161,0,0,1,.223.276Z" transform="translate(-0.2 -0.2)" fill="#fdfdfd"/>
      </g>
      <g id="组_194" transform="translate(28.08 6.167)">
        <path id="路径_182" d="M.1.321a.671.671,0,1,1,.223.921A.673.673,0,0,1,.1.321Z" transform="translate(0 0)" fill="#fdfdfd"/>
      </g>
      <g id="组_195" transform="translate(29.476 8.062)">
        <path id="路径_183" d="M.27.309A.115.115,0,1,1,.257.4.115.115,0,0,1,.27.309Z" transform="translate(-0.254 -0.254)" fill="#fdfdfd"/>
      </g>
      <g id="组_196" transform="translate(0.932 9.432)">
        <path id="路径_184" d="M.117.381A.8.8,0,1,1,.382,1.476.8.8,0,0,1,.117.381Z" transform="translate(0 0)" fill="#fdfdfd"/>
      </g>
      <g id="组_197" transform="translate(21.852 2.83)">
        <path id="路径_185" d="M.223.276A.161.161,0,1,1,.2.4.161.161,0,0,1,.223.276Z" transform="translate(-0.2 -0.2)" fill="#fdfdfd"/>
      </g>
      <g id="组_198" transform="translate(20.141 24.5)">
        <path id="路径_186" d="M.223.276A.161.161,0,1,1,.2.4.161.161,0,0,1,.223.276Z" transform="translate(-0.2 -0.2)" fill="#fdfdfd"/>
      </g>
      <g id="组_199" transform="translate(20.663 18.901)">
        <path id="路径_187" d="M.223.276A.161.161,0,1,1,.2.4.161.161,0,0,1,.223.276Z" transform="translate(-0.2 -0.2)" fill="#fdfdfd"/>
      </g>
      <g id="组_201" transform="translate(14.169 23.618)">
        <path id="路径_188" d="M.427.526l.124.05a.381.381,0,0,1-.095.2A.251.251,0,0,1,.082.727.5.5,0,0,1,0,.426.527.527,0,0,1,.082.112.252.252,0,0,1,.3,0,.232.232,0,0,1,.485.088.35.35,0,0,1,.55.237L.424.276A.143.143,0,0,0,.291.14.133.133,0,0,0,.177.2a.385.385,0,0,0-.044.21A.415.415,0,0,0,.176.634.13.13,0,0,0,.288.7.113.113,0,0,0,.376.657.269.269,0,0,0,.427.526Z" transform="translate(0 0)"/>
        <path id="路径_189" d="M.79.827V.018H.917V.336h.25V.018h.127V.827H1.168V.473H.918V.827Z" transform="translate(-0.129 -0.003)"/>
      </g>
      <g id="组_202" transform="translate(18.491 24.387)">
        <path id="路径_190" d="M.427.41.551.449A.276.276,0,0,1,.457.6.3.3,0,0,1,.082.566.327.327,0,0,1,0,.332.344.344,0,0,1,.082.087.28.28,0,0,1,.3,0,.263.263,0,0,1,.485.069.249.249,0,0,1,.55.185L.424.215A.131.131,0,0,0,.291.109a.144.144,0,0,0-.114.05A.246.246,0,0,0,.133.323a.264.264,0,0,0,.043.17A.14.14,0,0,0,.288.544.128.128,0,0,0,.376.512.188.188,0,0,0,.427.41Z" transform="translate(0 0)"/>
        <path id="路径_191" d="M1.348.644H1.209L1.154.5H.9L.849.644H.713L.96.014h.135ZM1.113.395,1.026.161.94.395Z" transform="translate(-0.116 -0.002)"/>
      </g>
      <g id="组_203" transform="translate(24.691 21.394)">
        <path id="路径_192" d="M.634.631H.5L.44.488H.188L.135.631H0L.246,0H.381ZM.4.382.312.148.227.382Z" transform="translate(0 0)"/>
        <path id="路径_193" d="M.894.631V.107H.706V0h.5V.107H1.021V.631Z" transform="translate(-0.115)"/>
      </g>
      <g id="组_204" transform="translate(27.691 24.411)">
        <path id="路径_194" d="M.543.54H.424L.377.417H.161L.116.54H0L.211,0H.327ZM.342.327.267.126l-.073.2Z"/>
        <path id="路径_195" d="M.719.54V0h.4V.091H.828v.12H1.1V.3H.828V.449h.3V.54Z" transform="translate(-0.117)"/>
      </g>
      <g id="组_205" transform="translate(21.121 19.653)">
        <path id="路径_196" d="M.427.526l.124.05a.381.381,0,0,1-.095.2A.251.251,0,0,1,.082.727.5.5,0,0,1,0,.426.527.527,0,0,1,.082.112.253.253,0,0,1,.3,0,.232.232,0,0,1,.485.088.352.352,0,0,1,.55.237L.424.276A.142.142,0,0,0,.29.142.132.132,0,0,0,.176.206a.386.386,0,0,0-.044.21A.415.415,0,0,0,.176.635.13.13,0,0,0,.288.7.114.114,0,0,0,.375.658.271.271,0,0,0,.427.526Z" transform="translate(0 0)"/>
        <path id="路径_197" d="M.724.827V.679L1.055.155H.76V.018h.463V.144L.876.691h.359V.827Z" transform="translate(-0.118 -0.003)"/>
      </g>
      <g id="组_206" transform="translate(13.683 17.955)">
        <path id="路径_198" d="M0,.63V0H.124L.383.421V0H.5V.63H.373L.119.219V.63Z" transform="translate(0 0)"/>
        <path id="路径_199" d="M1.317.63H1.179L1.123.487H.871L.819.63H.683L.929,0h.135ZM1.082.381,1,.147.91.381Z" transform="translate(-0.111)"/>
      </g>
      <g id="组_207" transform="translate(15.614 13.304)">
        <path id="路径_200" d="M0,.56.124.544A.218.218,0,0,0,.17.662.119.119,0,0,0,.262.7.12.12,0,0,0,.355.666.108.108,0,0,0,.388.588.087.087,0,0,0,.375.54.1.1,0,0,0,.329.5Q.307.495.227.47A.315.315,0,0,1,.083.39.237.237,0,0,1,.025.228.248.248,0,0,1,.052.113.188.188,0,0,1,.131.029.256.256,0,0,1,.255,0,.228.228,0,0,1,.434.068.267.267,0,0,1,.5.245L.37.252A.154.154,0,0,0,.333.162.109.109,0,0,0,.253.135.123.123,0,0,0,.166.164a.065.065,0,0,0-.02.05A.069.069,0,0,0,.164.263.294.294,0,0,0,.282.317.527.527,0,0,1,.419.375a.2.2,0,0,1,.07.084A.293.293,0,0,1,.514.587a.286.286,0,0,1-.03.13A.2.2,0,0,1,.4.807.29.29,0,0,1,.261.836.235.235,0,0,1,.077.766.346.346,0,0,1,0,.56Z" transform="translate(0 0)"/>
        <path id="路径_201" d="M.742.825V.019h.469V.155H.87V.334h.317V.47H.87V.689h.354V.825Z" transform="translate(-0.121 -0.003)"/>
      </g>
      <g id="组_208" transform="translate(22.18 14.779)">
        <path id="路径_202" d="M0,.823V.018H.469V.154H.128V.333H.446V.468H.128V.688H.482V.823Z" transform="translate(0 -0.003)"/>
        <path id="路径_203" d="M.665.558.789.543A.216.216,0,0,0,.834.66.119.119,0,0,0,.927.7.12.12,0,0,0,1.02.664.108.108,0,0,0,1.053.586.087.087,0,0,0,1.04.538.1.1,0,0,0,.994.5Q.971.493.891.468A.315.315,0,0,1,.748.388.235.235,0,0,1,.686.226.249.249,0,0,1,.713.111.188.188,0,0,1,.792.029.257.257,0,0,1,.917,0,.228.228,0,0,1,1.1.067a.266.266,0,0,1,.063.177L1.031.252A.154.154,0,0,0,1,.163.109.109,0,0,0,.915.136.123.123,0,0,0,.828.165a.064.064,0,0,0-.02.05A.069.069,0,0,0,.827.263.294.294,0,0,0,.944.317a.526.526,0,0,1,.138.058.2.2,0,0,1,.07.084.293.293,0,0,1,.025.129.286.286,0,0,1-.03.13.2.2,0,0,1-.085.09A.291.291,0,0,1,.924.836.235.235,0,0,1,.74.766.347.347,0,0,1,.665.558Z" transform="translate(-0.108 0)"/>
      </g>
      <g id="组_209" transform="translate(30.116 17.034)">
        <path id="路径_204" d="M.121.837V0H.25V.837Z" transform="translate(-0.121)"/>
        <path id="路径_205" d="M.421.837V0H.893V.141H.55V.327H.87V.468H.55V.7H.906V.837Z" transform="translate(-0.17)"/>
      </g>
      <g id="组_210" transform="translate(23.851 12.625)">
        <path id="路径_206" d="M0,.631V0H.2A.741.741,0,0,1,.356.01.164.164,0,0,1,.447.072.2.2,0,0,1,.484.195a.206.206,0,0,1-.021.1A.174.174,0,0,1,.409.355a.185.185,0,0,1-.066.03A.729.729,0,0,1,.212.394H.129V.632ZM.127.107V.286H.2A.329.329,0,0,0,.3.276.083.083,0,0,0,.338.245.085.085,0,0,0,.353.2.081.081,0,0,0,.332.139.089.089,0,0,0,.281.111a.614.614,0,0,0-.092,0Z" transform="translate(0 0)"/>
        <path id="路径_207" d="M.837.631V.107H.649V0h.5V.107H.965V.631Z" transform="translate(-0.106)"/>
      </g>
      <g id="组_211" transform="translate(23.396 9.36)">
        <path id="路径_208" d="M0,.837V0H.164l.1.571L.361,0H.526V.837h-.1V.177L.317.837H.211L.1.177v.66Z"/>
        <path id="路径_209" d="M.886.837V.485L.689,0H.817L.945.331,1.07,0H1.2L1,.486V.837Z" transform="translate(-0.112)"/>
      </g>
      <g id="组_212" transform="translate(28.246 6.591)">
        <path id="路径_210" d="M0,0H.2A.391.391,0,0,1,.3.01.18.18,0,0,1,.385.06.236.236,0,0,1,.437.148.4.4,0,0,1,.455.275.353.353,0,0,1,.438.39a.238.238,0,0,1-.058.1A.192.192,0,0,1,.3.529a.332.332,0,0,1-.1.011H0ZM.109.092V.449H.191A.3.3,0,0,0,.257.444.1.1,0,0,0,.3.421.114.114,0,0,0,.33.369a.352.352,0,0,0,.011-.1A.323.323,0,0,0,.33.175.124.124,0,0,0,.3.122.1.1,0,0,0,.248.1.494.494,0,0,0,.158.092Z" transform="translate(0 0)"/>
        <path id="路径_211" d="M.657.54V0H.766V.24L.987,0h.147l-.2.21.215.33H1L.855.287.766.377V.541Z" transform="translate(-0.107 0)"/>
      </g>
      <g id="组_213" transform="translate(22.184 4.807)">
        <path id="路径_212" d="M.276,0H.4V.4A.4.4,0,0,1,.389.52.17.17,0,0,1,.324.608.224.224,0,0,1,.2.641.191.191,0,0,1,.051.589.213.213,0,0,1,0,.435L.121.422A.167.167,0,0,0,.137.5.069.069,0,0,0,.2.531.07.07,0,0,0,.26.506a.19.19,0,0,0,.018-.1Z" transform="translate(0 0)"/>
        <path id="路径_213" d="M.643.631V0h.2A.741.741,0,0,1,1,.01.164.164,0,0,1,1.09.072a.2.2,0,0,1,.037.123.2.2,0,0,1-.021.1.174.174,0,0,1-.054.062.186.186,0,0,1-.066.03A.729.729,0,0,1,.855.394H.772V.632ZM.77.107V.286H.84a.329.329,0,0,0,.1-.01A.083.083,0,0,0,.981.245.084.084,0,0,0,1,.2.081.081,0,0,0,.975.139.088.088,0,0,0,.924.111a.611.611,0,0,0-.092,0Z" transform="translate(-0.105 0)"/>
      </g>
      <g id="组_214" transform="translate(20.22 8.204)">
        <path id="路径_214" d="M0,0H.217A.425.425,0,0,1,.328.011.2.2,0,0,1,.417.065.257.257,0,0,1,.473.16.43.43,0,0,1,.492.3.384.384,0,0,1,.474.423a.258.258,0,0,1-.063.1A.208.208,0,0,1,.328.573a.358.358,0,0,1-.1.012H0ZM.119.1V.486H.207A.329.329,0,0,0,.279.48.11.11,0,0,0,.327.456.123.123,0,0,0,.357.4.38.38,0,0,0,.37.293a.348.348,0,0,0-.012-.1A.134.134,0,0,0,.325.132.113.113,0,0,0,.27.1.533.533,0,0,0,.171.1Z" transform="translate(0 0)"/>
        <path id="路径_215" d="M.708.585V0h.435V.1H.826V.23h.3v.1h-.3V.487h.329v.1Z" transform="translate(-0.115 0)"/>
      </g>
      <g id="组_215" transform="translate(15.067 6.04)">
        <path id="路径_216" d="M0,0H.235a.675.675,0,0,1,.1.006A.153.153,0,0,1,.4.03.15.15,0,0,1,.445.079.131.131,0,0,1,.463.148.139.139,0,0,1,.38.274.155.155,0,0,1,.463.327.141.141,0,0,1,.491.415.174.174,0,0,1,.473.493a.157.157,0,0,1-.051.06.168.168,0,0,1-.08.028q-.03,0-.143,0H0ZM.119.1V.234H.2a.81.81,0,0,0,.086,0A.078.078,0,0,0,.33.211.061.061,0,0,0,.348.165.065.065,0,0,0,.332.121.068.068,0,0,0,.288.1Q.27.1.187.1Zm0,.233V.488h.11a.542.542,0,0,0,.081,0A.074.074,0,0,0,.353.461.072.072,0,0,0,.369.411.076.076,0,0,0,.356.366.072.072,0,0,0,.319.34.4.4,0,0,0,.214.331Z" transform="translate(0 0)"/>
        <path id="路径_217" d="M.706.585V0H1.14V.1H.823V.229h.3v.1h-.3V.487h.329v.1Z" transform="translate(-0.115 0)"/>
      </g>
      <g id="组_216" transform="translate(20.254 1.778)">
        <path id="路径_218" d="M.292.381v-.1H.547V.516A.321.321,0,0,1,.439.58.393.393,0,0,1,.3.607.322.322,0,0,1,.136.568a.245.245,0,0,1-.1-.11A.356.356,0,0,1,0,.3.336.336,0,0,1,.039.139.259.259,0,0,1,.151.03.3.3,0,0,1,.292,0,.281.281,0,0,1,.462.046.205.205,0,0,1,.542.173L.424.195A.124.124,0,0,0,.377.127.142.142,0,0,0,.292.1.161.161,0,0,0,.168.151.207.207,0,0,0,.123.3.229.229,0,0,0,.169.453.155.155,0,0,0,.291.5.2.2,0,0,0,.365.491.257.257,0,0,0,.431.455V.381Z" transform="translate(0 0)"/>
        <path id="路径_219" d="M.785.014h.235a.686.686,0,0,1,.1.006.154.154,0,0,1,.061.024.15.15,0,0,1,.045.049.131.131,0,0,1,.018.068.139.139,0,0,1-.082.127.155.155,0,0,1,.082.053.14.14,0,0,1,.029.088.173.173,0,0,1-.019.078.156.156,0,0,1-.051.06.168.168,0,0,1-.08.028Q1.1.6.984.6h-.2ZM.9.112V.247H.981q.069,0,.086,0A.079.079,0,0,0,1.115.224.062.062,0,0,0,1.132.179.065.065,0,0,0,1.117.134.067.067,0,0,0,1.072.114q-.018,0-.1,0ZM.9.345V.5h.11a.539.539,0,0,0,.081,0A.073.073,0,0,0,1.137.474a.072.072,0,0,0,.017-.05A.077.077,0,0,0,1.141.38.073.073,0,0,0,1.1.353.407.407,0,0,0,1,.345Z" transform="translate(-0.128 -0.002)"/>
      </g>
      <g id="组_217" transform="translate(15.906 1.003)">
        <path id="路径_220" d="M0,.5V0H.1V.22L.3,0H.438L.251.193l.2.3H.318L.182.263.1.346V.5Z" transform="translate(0 0)"/>
        <path id="路径_221" d="M.6.5V0H.807A.362.362,0,0,1,.923.014.114.114,0,0,1,.981.061.142.142,0,0,1,1,.139.131.131,0,0,1,.97.231a.158.158,0,0,1-.1.046A.232.232,0,0,1,.925.319.56.56,0,0,1,.982.4l.06.1H.922L.85.388A.706.706,0,0,0,.8.315.077.077,0,0,0,.767.295.165.165,0,0,0,.716.289H.7V.5ZM.7.21H.771A.387.387,0,0,0,.861.2.054.054,0,0,0,.889.183.065.065,0,0,0,.9.146.06.06,0,0,0,.886.106.061.061,0,0,0,.848.086l-.073,0H.7Z" transform="translate(-0.097 0)"/>
      </g>
      <g id="组_218" transform="translate(10.442 3.256)">
        <path id="路径_222" d="M0,.834V0H.119V.327H.351V0H.469V.834H.351V.47H.119V.834Z"/>
        <path id="路径_223" d="M.709.834V0H.827V.37L1.067,0h.159L1,.327l.233.509H1.084L.923.445l-.1.14V.837Z" transform="translate(-0.115)"/>
      </g>
      <g id="组_219" transform="translate(5.696 8.012)">
        <path id="路径_224" d="M.4.526l.115.05a.393.393,0,0,1-.088.2A.223.223,0,0,1,.076.727.529.529,0,0,1,0,.426.558.558,0,0,1,.076.112.23.23,0,0,1,.275,0,.21.21,0,0,1,.45.088.363.363,0,0,1,.51.237L.393.276C.382.195.329.137.269.14A.121.121,0,0,0,.164.2.411.411,0,0,0,.123.414a.442.442,0,0,0,.04.219A.12.12,0,0,0,.267.7.1.1,0,0,0,.348.656.28.28,0,0,0,.4.526Z" transform="translate(0 0)"/>
        <path id="路径_225" d="M.734.826V.017H.85l.24.541V.017H1.2V.826H1.081L.844.3V.826Z" transform="translate(-0.12 -0.003)"/>
      </g>
      <g id="组_220" transform="translate(1.122 9.909)">
        <path id="路径_226" d="M.588.585H.459L.408.452H.174L.126.585H0L.23,0H.355ZM.37.353.289.136.21.353Z"/>
        <path id="路径_227" d="M.777,0H.9V.317a.658.658,0,0,0,0,.1A.1.1,0,0,0,.936.473a.126.126,0,0,0,.078.022A.12.12,0,0,0,1.09.474a.081.081,0,0,0,.031-.05.656.656,0,0,0,.005-.1V0h.119V.309a.784.784,0,0,1-.01.149A.164.164,0,0,1,1.2.531.178.178,0,0,1,1.13.578.3.3,0,0,1,1.017.6.326.326,0,0,1,.89.577.183.183,0,0,1,.821.526.164.164,0,0,1,.788.461.712.712,0,0,1,.777.313Z" transform="translate(-0.126)"/>
      </g>
      <g id="组_221" transform="translate(11.149 7.152)">
        <path id="路径_228" d="M.125.837V0H.258V.837Z" transform="translate(-0.125 0)"/>
        <path id="路径_229" d="M.571.837v-.7h-.2V0H.9V.141H.7v.7Z" transform="translate(-0.166)"/>
      </g>
      <g id="组_222" transform="translate(26.692 11.919)">
        <path id="路径_230" d="M0,.56.106.544A.243.243,0,0,0,.146.662.1.1,0,0,0,.225.7.1.1,0,0,0,.3.666.119.119,0,0,0,.331.588.1.1,0,0,0,.32.539.091.091,0,0,0,.28.5Q.261.495.193.469A.26.26,0,0,1,.069.389.263.263,0,0,1,.019.227.286.286,0,0,1,.042.111.178.178,0,0,1,.11.029.194.194,0,0,1,.217,0,.181.181,0,0,1,.37.068.3.3,0,0,1,.424.246L.315.253a.17.17,0,0,0-.03-.09A.085.085,0,0,0,.216.136.1.1,0,0,0,.141.165.07.07,0,0,0,.124.214.076.076,0,0,0,.14.263a.236.236,0,0,0,.1.054A.421.421,0,0,1,.358.376a.2.2,0,0,1,.06.082.365.365,0,0,1,0,.259A.19.19,0,0,1,.34.807.218.218,0,0,1,.222.836.186.186,0,0,1,.065.765.387.387,0,0,1,0,.56Z" transform="translate(0 0)"/>
        <path id="路径_231" d="M.884.526V.389H1.12V.711a.3.3,0,0,1-.1.087A.261.261,0,0,1,.89.836.222.222,0,0,1,.742.783.321.321,0,0,1,.647.631.7.7,0,0,1,.614.416.658.658,0,0,1,.65.191a.321.321,0,0,1,.1-.15A.205.205,0,0,1,.883,0a.2.2,0,0,1,.158.063.325.325,0,0,1,.073.175l-.109.03A.189.189,0,0,0,.962.175.1.1,0,0,0,.883.14.128.128,0,0,0,.769.208a.388.388,0,0,0-.042.2A.434.434,0,0,0,.77.625.128.128,0,0,0,.882.7.136.136,0,0,0,.951.677.229.229,0,0,0,1.01.628v-.1Z" transform="translate(-0.1 0)"/>
      </g>
      <g id="组_223" transform="translate(30.358 10.89)">
        <path id="路径_232" d="M0,.837V0H.459V.142H.134v.2H.413V.481H.134V.837Z"/>
        <path id="路径_233" d="M.677.837V0H.812V.837Z" transform="translate(-0.11)"/>
      </g>
      <g id="组_224" transform="translate(24.233 28.186)">
        <path id="路径_234" d="M0,.017H.11V.455c0,.045,0,.09,0,.135A.151.151,0,0,0,.147.67.091.091,0,0,0,.219.7.085.085,0,0,0,.289.671.13.13,0,0,0,.318.6a1.352,1.352,0,0,0,0-.137V.017H.432V.442A1.62,1.62,0,0,1,.423.648a.286.286,0,0,1-.033.1A.182.182,0,0,1,.327.815a.2.2,0,0,1-.1.025A.212.212,0,0,1,.105.813.193.193,0,0,1,.042.743.274.274,0,0,1,.011.654,1.458,1.458,0,0,1,0,.449Z" transform="translate(0 -0.003)"/>
        <path id="路径_235" d="M.622.559.728.544A.239.239,0,0,0,.767.662.1.1,0,0,0,.846.7.1.1,0,0,0,.926.666.119.119,0,0,0,.952.588.1.1,0,0,0,.941.539.091.091,0,0,0,.9.5.85.85,0,0,0,.814.469.262.262,0,0,1,.69.389.264.264,0,0,1,.641.226.286.286,0,0,1,.664.111.178.178,0,0,1,.732.029.194.194,0,0,1,.838,0,.181.181,0,0,1,.992.068a.3.3,0,0,1,.054.178L.937.253a.17.17,0,0,0-.03-.09A.085.085,0,0,0,.837.136.1.1,0,0,0,.762.165.07.07,0,0,0,.745.214.076.076,0,0,0,.761.263a.237.237,0,0,0,.1.054A.424.424,0,0,1,.98.375a.2.2,0,0,1,.06.082.365.365,0,0,1,0,.259.19.19,0,0,1-.073.09A.218.218,0,0,1,.844.836.186.186,0,0,1,.687.765.386.386,0,0,1,.622.559Z" transform="translate(-0.101 0)"/>
      </g>
    </g>
  </g>
</svg>
