<?xml version="1.0" encoding="UTF-8"?>
<svg width="16px" height="16px" viewBox="0 0 16 16" version="1.1" xmlns="http://www.w3.org/2000/svg" xmlns:xlink="http://www.w3.org/1999/xlink">
    <title>ic_account</title>
    <g id="终端个人中心" stroke="none" stroke-width="1" fill="none" fill-rule="evenodd">
        <g id="个人中心-个人信息备份" transform="translate(-36.000000, -196.000000)" fill-rule="nonzero">
            <g id="ic_account" transform="translate(36.000000, 196.000000)">
                <rect id="矩形" fill="#000000" opacity="0" x="0" y="0" width="16" height="16"></rect>
                <path d="M14.342204,2.30071211 L2.00023584,2.30071211 C1.49881581,2.30071211 1.09104428,2.70814788 1.09104428,3.20892834 L1.09104428,12.0754768 C1.09104428,12.5762093 1.49881581,12.9836931 2.00023584,12.9836931 L14.342204,12.9836931 C14.8442796,12.9836931 15.2510918,12.5762413 15.2510918,12.0754768 L15.2510918,3.20892834 C15.2510918,2.70814788 14.8442796,2.30071211 14.342204,2.30071211 M14.57814,12.0754768 C14.57814,12.2042855 14.4723238,12.3107413 14.342188,12.3107413 L2.00023584,12.3107413 C1.87043584,12.3107413 1.76398002,12.2042855 1.76398002,12.0754768 L1.76398002,3.20892834 C1.76398002,3.08011967 1.87043584,2.97364786 2.00023583,2.97364786 L14.342204,2.97364786 C14.4723397,2.97364786 14.57814,3.08011967 14.57814,3.20892834 L14.57814,12.0754768 L14.57814,12.0754768 Z M6.76108798,7.98522602 C7.25460937,7.60800977 7.57992481,7.019177 7.57992481,6.3528128 C7.57992481,5.21723072 6.65659883,4.29323319 5.52165631,4.29323319 C4.3867138,4.29323319 3.46338781,5.21721473 3.46338781,6.3528128 C3.46338781,7.019177 3.78835148,7.60800977 4.28222464,7.98522602 C3.18212252,8.46496475 2.40962227,9.56111756 2.40962227,10.8373403 C2.40962227,11.0226706 2.55979245,11.1738162 2.74609814,11.1738162 C2.93174827,11.1738162 3.08257402,11.0226706 3.08257402,10.8373403 C3.08257402,9.51380564 4.14223956,8.43866258 5.45659642,8.40450973 C5.47893328,8.40450973 5.49931945,8.4110653 5.52165631,8.4110653 C5.54397717,8.4110653 5.56437934,8.40450973 5.58602867,8.40450973 C6.90168066,8.43869456 7.96104241,9.51380562 7.96104241,10.8373403 C7.96104241,11.0226706 8.11153237,11.1738162 8.29751828,11.1738162 C8.48350419,11.1738162 8.63399416,11.0226706 8.63399416,10.8373403 C8.63399416,9.56111756 7.86119011,8.46496475 6.76108798,7.98522602 M4.13635555,6.35282878 C4.13635555,5.58787542 4.7573745,4.96618492 5.5216883,4.96618492 C6.28531456,4.96618492 6.90700505,5.58787542 6.90700505,6.35282878 C6.90700505,7.0941022 6.31949937,7.69607806 5.58609262,7.731558 C5.5644433,7.73024689 5.54404114,7.72498645 5.52172027,7.72498645 C5.49938341,7.72498645 5.47898125,7.73024689 5.45666037,7.731558 C4.72320567,7.69606206 4.13635555,7.0941022 4.13635555,6.35282878 M13.2322365,4.90836813 L8.7325993,4.90836813 C8.54595784,4.90836813 8.39612342,5.05951364 8.39612342,5.244828 C8.39612342,5.43015834 8.54595783,5.58130388 8.7325993,5.58130388 L13.2322365,5.58130388 C13.4182384,5.58130388 13.5687124,5.43015836 13.5687124,5.244828 C13.5687124,5.05951366 13.4182384,4.90836813 13.2322365,4.90836813 M13.2322365,6.98371305 L8.7325993,6.98371305 C8.54595784,6.98371305 8.39612342,7.13354745 8.39612342,7.32017292 C8.39612342,7.50550327 8.54595783,7.6566488 8.7325993,7.6566488 L13.2322365,7.6566488 C13.4182384,7.6566488 13.5687124,7.50550328 13.5687124,7.32017292 C13.5687124,7.13354745 13.4182384,6.98371305 13.2322365,6.98371305 M13.2322365,9.05904197 L9.40553505,9.05904197 C9.21890958,9.05904197 9.06907517,9.20887638 9.06907517,9.39550184 C9.06907517,9.58083219 9.21890958,9.73197772 9.40553505,9.73197772 L13.2322365,9.73197772 C13.4182384,9.73197772 13.5687124,9.5808322 13.5687124,9.39550184 C13.5687124,9.20889238 13.4182384,9.05904197 13.2322365,9.05904197" id="形状" fill-opacity="0.803391677" fill="#FFFFFF"></path>
            </g>
        </g>
    </g>
</svg>