<?xml version="1.0" encoding="UTF-8"?>
<svg width="16px" height="15px" viewBox="0 0 16 15" version="1.1" xmlns="http://www.w3.org/2000/svg" xmlns:xlink="http://www.w3.org/1999/xlink">
    <title>ic_income</title>
    <g id="终端个人中心" stroke="none" stroke-width="1" fill="none" fill-rule="evenodd">
        <g id="个人中心-个人信息备份" transform="translate(-36.000000, -329.000000)" fill-rule="nonzero">
            <g id="ic_income" transform="translate(36.000000, 329.000000)">
                <rect id="矩形" fill="#000000" opacity="0" x="0" y="0" width="14.5201211" height="14.5201211"></rect>
                <path d="M14.9803623,8.01890018 C14.9800247,8.11579658 14.9455876,8.20492776 14.8868421,8.2633357 C14.8615207,8.28831944 14.8206689,8.31769221 14.7757657,8.31769221 L14.7750905,8.31769221 L14.2511071,8.30756366 C14.0083597,8.28190469 13.7750656,8.43180713 13.7078796,8.67455456 C13.4303575,9.68268224 12.8364873,10.6013411 11.9910915,11.3316091 C11.9819758,11.3393743 11.9752235,11.3488276 11.966783,11.3569305 C11.9650949,11.3586185 11.9634068,11.3606442 11.9617187,11.3623323 C11.9428121,11.3819142 11.9249184,11.4018337 11.9093879,11.4234412 C11.9019603,11.4339074 11.8955456,11.4453864 11.8887932,11.4565278 C11.8800151,11.4717206 11.8705618,11.4865758 11.8631342,11.5024439 C11.8557067,11.5183119 11.8503048,11.5351928 11.8445653,11.5520737 C11.8398386,11.5659161 11.8347743,11.5794208 11.8310605,11.5936007 C11.8273467,11.6094688 11.825321,11.6260121 11.8226201,11.642893 C11.8202568,11.6597739 11.8178934,11.6766548 11.8172182,11.6938733 C11.8168806,11.6989376 11.8155301,11.7036643 11.8155301,11.7090661 L11.7976363,13.2725756 C11.7976363,13.3299707 11.7507074,13.3772372 11.6929747,13.3772372 L10.6402814,13.3772372 C10.5825487,13.3772372 10.5352822,13.3299707 10.5352822,13.2725756 L10.5352822,13.0497477 C10.5352822,12.7701999 10.3084028,12.5433205 10.0288551,12.5433205 C9.98293898,12.5433205 9.93904863,12.5514233 9.89684636,12.56324 C9.84282747,12.5622271 9.78813334,12.567629 9.73377681,12.5851851 C8.42955806,13.0021435 6.96699639,13.0227382 5.64690958,12.6422426 C5.56824455,12.5915999 5.47506196,12.5612142 5.37445176,12.5612142 C5.09490396,12.5612142 4.86802459,12.7880936 4.86802459,13.0676414 L4.86802459,13.2725756 C4.86802459,13.3299707 4.82075805,13.3772372 4.76302536,13.3772372 L3.71033209,13.3772372 C3.6525994,13.3772372 3.6060081,13.3299707 3.6060081,13.2648104 L3.58777671,12.0608642 C3.58710148,12.0314914 3.58305006,12.0034691 3.5779858,11.9754468 C3.60837142,11.7988726 3.54624969,11.6118321 3.39600963,11.4926529 C2.06815759,10.4386092 1.30649113,8.9308067 1.30649113,7.3558182 C1.30649113,4.29092099 4.1279657,1.79727363 7.59631656,1.79727363 C8.36406014,1.79727363 9.11492282,1.91847854 9.8266218,2.15751216 C9.82966036,2.15852501 9.83269892,2.15852501 9.83573749,2.15953786 C9.8546441,2.165615 9.87388834,2.16932879 9.8938078,2.17304259 C9.90832539,2.17574353 9.92284295,2.17945734 9.93736054,2.18080781 C9.95019003,2.18215828 9.96301952,2.18148304 9.97618662,2.18182066 C9.99745657,2.1824959 10.0187265,2.18317113 10.0399964,2.18080781 C10.0477617,2.18013257 10.0551893,2.17810687 10.0629545,2.17675638 C10.0889511,2.17304259 10.1149477,2.16797832 10.1399314,2.15987548 C10.1416195,2.15920025 10.1436452,2.15920025 10.1456709,2.15886263 C10.2061046,2.13894317 10.750345,1.95764224 11.1261139,1.72907478 L12.1879229,1.11427219 L12.0302552,2.43132045 C12.0137119,2.53564444 11.9505773,3.05186254 12.1700291,3.48029991 C12.1707043,3.48232561 12.1720548,3.4840137 12.1727301,3.48637703 C12.1838715,3.50764697 12.1923119,3.52992977 12.2048038,3.5508621 C12.2253985,3.58428628 12.2503822,3.61298383 12.2763788,3.63999328 C12.2790798,3.64303184 12.279755,3.64674563 12.2827936,3.64944659 C12.9603931,4.31793044 13.4489265,5.1282139 13.6957254,5.99319151 C13.7460305,6.16942816 13.8847915,6.29333401 14.0488739,6.33857484 C14.1008671,6.35781907 14.1558988,6.37098617 14.2143068,6.37199903 L14.7764409,6.38246519 C14.8767135,6.38314043 14.9877899,6.50772151 14.9871177,6.68530863 L14.9803623,8.01890018 Z M1.44558979,2.29458511 C1.47361209,2.26352424 1.50636105,2.24698095 1.53944762,2.24698095 L1.54012287,2.24698095 C1.57152134,2.24731857 1.60123173,2.26318662 1.62790356,2.29019608 C1.66132776,2.32328265 1.680572,2.3688611 1.68226009,2.42726903 C1.68563626,2.52281495 1.64478448,2.60890757 1.60595839,2.6484089 C1.57759848,2.67744405 1.53742191,2.69466257 1.51210055,2.6895983 C1.50501058,2.68926069 1.49859583,2.68487164 1.49150586,2.68318355 L1.44322647,2.62815181 C1.36489906,2.53902063 1.36591191,2.38304105 1.44558979,2.29458511 L1.44558979,2.29458511 Z M1.95174437,3.27030145 C1.93109219,3.30260912 1.91152698,3.33645532 1.8908748,3.37030145 C1.87891831,3.36107067 1.86370091,3.3564553 1.85174437,3.34876299 C1.88652698,3.32568605 1.91804873,3.2949168 1.95174437,3.27030145 L1.95174437,3.27030145 Z M14.789608,5.36961086 L14.5569892,5.36522183 C14.2494191,4.49551756 13.73759,3.68624696 13.0623538,3.00020697 C13.018801,2.89858392 13.014412,2.6990516 13.032981,2.57075672 L13.22306,0.990366339 C13.2254233,0.970109253 13.2267738,0.950189788 13.2267738,0.929932702 C13.2267738,0.499807225 12.9722097,0.212494215 12.7544461,0.0977040512 C12.4043361,-0.0873106648 12.0096605,0.0274794851 11.7679259,0.187172854 L10.6092206,0.858020044 C10.4272444,0.968421161 10.1541114,1.07915991 9.97247283,1.1460083 C9.20878065,0.909337995 8.41132667,0.784419295 7.59631656,0.784419295 C5.48451527,0.784419295 3.58034912,1.59605324 2.24574471,2.88980584 C2.3200207,2.74226673 2.36256057,2.57548337 2.35715869,2.40599909 C2.35074395,2.20140252 2.2771432,2.01605016 2.15357497,1.86851106 C2.14952356,1.86344678 2.14851069,1.85669442 2.14378404,1.85163014 C2.13331788,1.83947589 2.11981316,1.83036021 2.10833414,1.81888119 C2.09584227,1.80638932 2.08638896,1.79153413 2.07322186,1.7800551 C2.06781997,1.77499083 2.06072999,1.77397798 2.05499048,1.76925133 C1.91048993,1.6456831 1.73121471,1.57309521 1.5445119,1.57174473 L1.53978524,1.57174473 C1.31594443,1.57174473 1.09919361,1.67032922 0.944226896,1.84251445 C0.868938055,1.92556851 0.812893451,2.02077682 0.77406737,2.12172464 C0.732877955,2.05183768 0.694051875,1.97452314 0.66400386,1.87931484 C0.608296877,1.7017277 0.417880264,1.60246798 0.24063075,1.65918783 C0.0623683866,1.71523243 -0.036216103,1.9049738 0.0201661227,2.08256094 C0.22813888,2.74159149 0.674807638,3.01303645 0.91519173,3.11600998 C1.00094674,3.3624712 1.16840531,3.64742087 1.43816219,3.83074751 C0.714984189,4.8503542 0.293636792,6.05936466 0.293636792,7.3558182 C0.293636792,9.16342558 1.12350211,10.8876413 2.57559761,12.1260245 L2.59315375,13.2725756 C2.59315375,13.8887287 3.09417902,14.3900916 3.71033209,14.3900916 L4.76302536,14.3900916 C5.21982266,14.3900916 5.61247253,14.1139199 5.78567062,13.7205948 C6.37548946,13.8556421 6.98218921,13.9275547 7.59631656,13.9275547 C8.279318,13.9275547 8.95050279,13.8390988 9.59974243,13.6723155 C9.76146151,14.0909619 10.1652528,14.3900916 10.6402814,14.3900916 L11.6929747,14.3900916 C12.3091278,14.3900916 12.8104907,13.8887287 12.8104907,13.2783151 L12.8260211,11.9379712 C13.6265136,11.1982499 14.2213967,10.3062629 14.5630663,9.32683274 L14.762261,9.33054654 L14.7696886,9.33054654 C15.0782715,9.33054654 15.3723369,9.20765355 15.5988786,8.98347512 C15.8477032,8.73735153 15.9915285,8.38757915 15.9932166,8.02396445 L15.9999846,6.69037291 C16.0033451,5.9668573 15.4577543,5.37433751 14.789608,5.36961086 L14.789608,5.36961086 Z M11.1611924,4.82753122 C10.5882545,4.82753122 10.123692,5.29209375 10.123692,5.86503167 C10.123692,6.43796962 10.5882545,6.90253213 11.1611924,6.90253213 C11.7341304,6.90253213 12.1986929,6.43796962 12.1986929,5.86503167 C12.1986929,5.29209375 11.7341304,4.82753122 11.1611924,4.82753122" id="形状" fill-opacity="0.803782643" fill="#FFFFFF"></path>
            </g>
        </g>
    </g>
</svg>