<?xml version="1.0" encoding="UTF-8"?>
<svg width="16px" height="16px" viewBox="0 0 16 16" version="1.1" xmlns="http://www.w3.org/2000/svg" xmlns:xlink="http://www.w3.org/1999/xlink">
    <title>ic_product</title>
    <g id="终端个人中心" stroke="none" stroke-width="1" fill="none" fill-rule="evenodd">
        <g id="个人中心-个人信息备份" transform="translate(-36.000000, -152.000000)" fill-rule="nonzero">
            <g id="ic_product" transform="translate(36.000000, 152.000000)">
                <rect id="矩形" fill="#000000" opacity="0" x="0" y="0" width="16" height="16"></rect>
                <path d="M7.8765625,7.0703125 C7.590625,7.0703125 7.30625,7.00625 7.084375,6.9125 L2.7078125,4.75625 C2.421875,4.5984375 2.2328125,4.375 2.2328125,4.121875 C2.2328125,3.86875 2.3921875,3.6140625 2.7078125,3.45625 L7.115625,1.2046875 C7.36875,1.078125 7.6546875,1.0140625 7.971875,1.0140625 C8.2578125,1.0140625 8.5421875,1.078125 8.7640625,1.171875 L13.140625,3.328125 C13.4265625,3.4859375 13.615625,3.709375 13.615625,3.9625 C13.615625,4.215625 13.4578125,4.4703125 13.140625,4.628125 L8.7328125,6.8796875 C8.478125,7.00625 8.19375,7.0703125 7.8765625,7.0703125 Z M3.025,4.0890625 L7.4015625,6.2453125 C7.528125,6.309375 7.6875,6.340625 7.8765625,6.340625 C8.0671875,6.340625 8.2578125,6.309375 8.384375,6.2453125 L12.8234375,3.99375 L8.446875,1.8375 C8.3203125,1.7734375 8.1609375,1.7421875 7.971875,1.7421875 C7.78125,1.7421875 7.590625,1.7734375 7.4640625,1.8375 L3.025,4.0890625 Z M6.9875,14.965625 C6.8296875,14.965625 6.6703125,14.934375 6.5125,14.8390625 L2.5796875,12.778125 C2.1046875,12.55625 1.7546875,12.0484375 1.7546875,11.6359375 L1.7546875,6.11875 C1.7546875,5.7375 2.040625,5.453125 2.4515625,5.453125 C2.609375,5.453125 2.76875,5.484375 2.9265625,5.5796875 L6.8296875,7.640625 C7.3046875,7.8625 7.6546875,8.3703125 7.6546875,8.7828125 L7.6546875,14.3 C7.6546875,14.68125 7.36875,14.965625 6.9875,14.965625 L6.9875,14.965625 Z M6.8296875,14.2046875 C6.8609375,14.2359375 6.89375,14.2359375 6.925,14.2359375 L6.925,8.7828125 C6.925,8.65625 6.7671875,8.4015625 6.5125,8.275 L2.5796875,6.2140625 C2.5484375,6.1828125 2.515625,6.1828125 2.484375,6.1828125 L2.484375,11.6375 C2.484375,11.7640625 2.64375,12.01875 2.896875,12.1453125 L6.8296875,14.2046875 L6.8296875,14.2046875 Z M9.08125,14.965625 C8.7,14.965625 8.415625,14.6796875 8.415625,14.3 L8.415625,8.7828125 C8.415625,8.3703125 8.7640625,7.8625 9.240625,7.640625 L13.140625,5.5796875 C13.2984375,5.515625 13.4578125,5.453125 13.615625,5.453125 C13.996875,5.453125 14.28125,5.7390625 14.28125,6.11875 L14.28125,11.6359375 C14.28125,12.0484375 13.9328125,12.55625 13.45625,12.778125 L9.55625,14.8390625 C9.365625,14.934375 9.2390625,14.965625 9.08125,14.965625 L9.08125,14.965625 Z M13.45625,6.2140625 L9.55625,8.275 C9.303125,8.4015625 9.14375,8.65625 9.14375,8.7828125 L9.14375,14.2375 C9.175,14.2375 9.2078125,14.20625 9.2390625,14.20625 L13.1390625,12.1453125 C13.3921875,12.01875 13.5515625,11.7640625 13.5515625,11.6375 L13.5515625,6.1828125 C13.5203125,6.1828125 13.4890625,6.2140625 13.45625,6.2140625 L13.45625,6.2140625 Z" id="形状" fill-opacity="0.803578624" fill="#FFFFFF"></path>
            </g>
        </g>
    </g>
</svg>