<?xml version="1.0" encoding="UTF-8"?>
<svg width="16px" height="16px" viewBox="0 0 16 16" version="1.1" xmlns="http://www.w3.org/2000/svg" xmlns:xlink="http://www.w3.org/1999/xlink">
    <title>ic_share1</title>
    <g id="页面-1" stroke="none" stroke-width="1" fill="none" fill-rule="evenodd">
        <g id="ic_share1" fill-rule="nonzero">
            <rect id="矩形" fill="#000000" opacity="0" x="0" y="0" width="16" height="16"></rect>
            <path d="M7.99996875,1 C8.32809375,1 8.59528125,1.265625 8.59528125,1.5953125 C8.59528125,1.925 8.32965625,2.190625 7.99996875,2.190625 C4.79059375,2.190625 2.18903125,4.7921875 2.18903125,8.0015625 C2.18903125,11.2109375 4.79059375,13.8109375 7.99996875,13.8109375 C11.2093437,13.8109375 13.8109062,11.209375 13.8109062,8 C13.8109062,7.671875 14.0765312,7.4046875 14.4062187,7.4046875 C14.7359062,7.4046875 14.9999688,7.671875 14.9999688,8 C14.9999688,11.865625 11.8655937,15 7.99996875,15 C4.13434375,15 0.99996875,11.865625 0.99996875,8 C0.99996875,4.134375 4.13434375,1 7.99996875,1 Z M11.6030937,3.9765625 C11.3812187,3.746875 11.3843437,3.3828125 11.6109062,3.1578125 C11.8374687,2.93125 12.2015312,2.9296875 12.4343438,3.1546875 L13.4593438,4.1796875 C13.7687187,4.4890625 13.7687187,4.9890625 13.4593438,5.2984375 L12.4343438,6.3234375 C12.2062187,6.5515625 11.8359063,6.5515625 11.6077813,6.3234375 C11.3796563,6.0953125 11.3796563,5.725 11.6077813,5.496875 L11.7812188,5.3234375 L11.0265313,5.3234375 C8.97496875,5.3234375 8.27809375,6.196875 8.27809375,8.8390625 C8.27809375,9.1625 8.01715625,9.4234375 7.69371875,9.4234375 C7.37028125,9.4234375 7.10934375,9.1625 7.10934375,8.8390625 C7.10934375,5.571875 8.30153125,4.1546875 11.0265313,4.1546875 L11.7812188,4.1546875 L11.6030938,3.9765625 L11.6030937,3.9765625 Z" id="形状" fill="#FFFFFF"></path>
        </g>
    </g>
</svg>