<?xml version="1.0" encoding="UTF-8"?>
<svg width="16px" height="16px" viewBox="0 0 16 16" version="1.1" xmlns="http://www.w3.org/2000/svg" xmlns:xlink="http://www.w3.org/1999/xlink">
    <title>ic_sell</title>
    <g id="终端个人中心" stroke="none" stroke-width="1" fill="none" fill-rule="evenodd">
        <g id="个人中心-个人信息备份" transform="translate(-36.000000, -284.000000)" fill-rule="nonzero">
            <g id="ic_sell" transform="translate(36.000000, 284.000000)">
                <rect id="矩形" fill="#000000" opacity="0" x="0" y="0" width="16" height="16"></rect>
                <path d="M8.02251852,14.8942222 C7.61659259,14.8942222 7.20948148,14.8568889 6.80533333,14.7822222 C6.66951948,14.7572401 6.55735011,14.6616998 6.51107834,14.5315905 C6.46480657,14.4014812 6.49146218,14.2565695 6.58100427,14.1514424 C6.67054635,14.0463152 6.80937133,13.9969438 6.94518519,14.0219259 C8.3495896,14.2811912 9.80038146,14.0244511 11.0305185,13.298963 L11.0334815,13.2971852 C12.4517841,12.4852643 13.4862883,11.1396407 13.9063704,9.5602963 C14.327363,7.99264248 14.1053092,6.3217998 13.2894815,4.91851852 C12.915472,4.26783305 12.4244663,3.6918456 11.8411852,3.21955556 C11.6862847,3.08224841 11.6668704,2.84735496 11.7971258,2.68647933 C11.9273811,2.52560369 12.1611737,2.49572288 12.3277037,2.61866667 C12.9839826,3.14989779 13.536465,3.79780902 13.9573333,4.52977778 C14.8773564,6.110879 15.1280103,7.99387629 14.6536296,9.76059259 C14.1811131,11.5386035 13.0168691,13.0536571 11.4204444,13.968 C10.390512,14.573866 9.21743867,14.8936277 8.02251852,14.8942222 L8.02251852,14.8942222 Z M3.50103703,13.072 C3.40315204,13.0721947 3.30886461,13.0351153 3.23733333,12.9682963 C2.72948147,12.4942222 2.33659259,11.9881482 2.03792592,11.4228148 C1.12143528,9.84299312 0.872545983,7.96299379 1.34637038,6.19911111 C1.81925173,4.42076226 2.98419033,2.90563786 4.58133333,1.9917037 C5.7313621,1.32910938 7.04846173,1.01321127 8.37392592,1.08207408 C8.58714874,1.09238339 8.75164264,1.27359199 8.74133333,1.48681481 C8.73102401,1.70003763 8.54981542,1.86453153 8.33659259,1.85422222 C7.15928467,1.79265874 5.98930137,2.07296081 4.9677037,2.66133333 C3.54891568,3.47325445 2.51397485,4.81910432 2.09362963,6.39881481 C1.67115722,7.97198155 1.89631458,9.64881699 2.71881481,11.0548148 C2.97718519,11.5460741 3.31911111,11.986963 3.76533333,12.402963 C3.88139627,12.5114732 3.91933432,12.679903 3.86100228,12.827695 C3.80267024,12.9754869 3.65992405,13.0725926 3.50103703,13.0725926 L3.50103703,13.072 Z M8.02251852,14.9712593 C7.61244444,14.9712593 7.19881481,14.9333333 6.7917037,14.8586667 C6.67031497,14.8368148 6.56274349,14.7672348 6.49303703,14.6654815 C6.42297415,14.5642601 6.39630232,14.4392225 6.41896297,14.3182222 C6.44081696,14.1971467 6.51015772,14.0898285 6.61155556,14.0201481 C6.71284605,13.9497211 6.83813697,13.9228273 6.95940741,13.9454815 C8.34540024,14.2017414 9.77731333,13.948568 10.9914074,13.2325926 L10.9955556,13.2302222 C12.3958351,12.4283556 13.4171038,11.0995967 13.8317037,9.54014814 C14.2472855,7.99229132 14.0280078,6.3425896 13.2225185,4.95703703 C12.8533075,4.31433425 12.3685291,3.74537758 11.7925926,3.27881481 C11.6095469,3.11335471 11.587773,2.83366857 11.743006,2.64187309 C11.898239,2.45007761 12.1763217,2.41308564 12.3762963,2.55762962 C13.04,3.09511111 13.5792593,3.72740741 14.0242963,4.48948148 C14.9547552,6.08849475 15.2081862,7.9928539 14.7282963,9.77955556 C14.2504393,11.5773596 13.073186,13.1092613 11.458963,14.0337778 C10.4174113,14.6467329 9.23104783,14.9703796 8.02251852,14.9712593 Z M6.87466667,14.093037 C6.72547857,14.0924451 6.59746702,14.1992048 6.57125927,14.3460741 C6.54771719,14.4693357 6.60172436,14.5944914 6.70755556,14.6619259 C6.74158598,14.6839947 6.77965259,14.6991005 6.81955556,14.7063704 C8.38758763,14.9951399 10.0071667,14.7090101 11.3813333,13.9004444 C12.9600595,12.9965317 14.1115037,11.4985447 14.578963,9.74044444 C15.0483431,7.99342372 14.8006713,6.13129885 13.890963,4.5677037 C13.4747394,3.84365144 12.9282772,3.20276378 12.2791111,2.67733333 C12.1456633,2.57742243 11.9570901,2.60097047 11.8523099,2.73063007 C11.7475296,2.86028967 11.764084,3.04960499 11.8897778,3.15911111 C12.480247,3.63735776 12.9772796,4.22057749 13.3558519,4.87940741 C14.1823159,6.30051809 14.4073607,7.99272704 13.981037,9.58044444 C13.555735,11.1799645 12.5079465,12.5427299 11.0714074,13.3647407 L11.0702222,13.3653333 C9.82406013,14.100385 8.35429914,14.3604973 6.93155556,14.0977778 C6.9127771,14.094464 6.8937346,14.0928772 6.87466667,14.093037 L6.87466667,14.093037 Z M3.50103703,13.1496305 C3.38357505,13.1498632 3.27043014,13.105368 3.18459259,13.0251852 C2.67022222,12.5451852 2.27318519,12.0331852 1.97037037,11.4601481 C1.04392583,9.86289967 0.792272732,7.96227898 1.27111111,6.17896297 C1.74919151,4.38060073 2.92715607,2.8483932 4.54222222,1.92414814 C5.70515952,1.25403949 7.03711012,0.934634769 8.37748148,1.00444444 C8.62618734,1.02611671 8.81330461,1.24046374 8.80119538,1.48981823 C8.78908615,1.73917271 8.58207997,1.93438019 8.33244444,1.93185186 C7.17008962,1.87091985 6.01492318,2.14751769 5.00622222,2.7282963 C3.60532121,3.53014542 2.58342199,4.85910518 2.1682963,6.41896297 C1.75069394,7.97340539 1.97352954,9.63037158 2.78696297,11.0192593 C3.04177778,11.5022222 3.37837037,11.936 3.81807408,12.3466667 C3.90818601,12.4304039 3.9610971,12.5466802 3.96503703,12.6696296 C3.97246827,12.8602378 3.86174922,13.0357393 3.68651852,13.1111111 C3.62798784,13.136537 3.56485173,13.1496305 3.50103703,13.1496305 L3.50103703,13.1496305 Z M8.02666667,1.15081481 C6.82133334,1.15081481 5.65037037,1.46192592 4.61925927,2.05807408 C3.04010319,2.96219295 1.88841577,4.46064562 1.42103703,6.21925927 C0.952721628,7.96315656 1.19883383,9.82179419 2.10488889,11.3837037 L2.10666667,11.3866667 C2.40118519,11.9442963 2.78814816,12.4432593 3.29007408,12.9114074 C3.38117333,12.9981244 3.51583136,13.0207734 3.63028644,12.9686298 C3.74474151,12.9164863 3.81601978,12.8000167 3.81037037,12.6743704 C3.8076563,12.5925227 3.77247405,12.5151218 3.71259259,12.4592593 C3.25985186,12.0373333 2.91259259,11.5899259 2.65007408,11.090963 C2.22906705,10.3727356 1.95868759,9.57631585 1.85540741,8.75022222 C1.75565622,7.95657618 1.81120594,7.15110525 2.01896297,6.37866667 C2.44450726,4.77894279 3.49247404,3.41600982 4.92918519,2.59377778 C5.9636822,1.99851048 7.14825805,1.71512602 8.34014814,1.77777778 C8.50424245,1.77600416 8.638511,1.64662601 8.64636889,1.48271035 C8.65422679,1.31879469 8.53294995,1.17716604 8.36977778,1.1597037 C8.256,1.15377778 8.14162964,1.15140741 8.02666667,1.15140741 L8.02666667,1.15081481 Z M7.64503703,6.6477037 L6.31288889,5.22666667 C6.13511111,5.04888889 6.16474075,4.75318519 6.34251852,4.576 C6.5202963,4.39822222 6.81659259,4.42785186 6.99377778,4.60562963 L8.32533333,6.02607408 C8.50311111,6.20385186 8.47348147,6.50014816 8.2957037,6.67733333 C8.0882963,6.82548147 7.82222222,6.82548147 7.64503703,6.6477037 L7.64503703,6.6477037 Z M7.9762963,6.86103703 C7.83143853,6.8619581 7.6922616,6.80475041 7.58992592,6.70222222 L7.58814814,6.70044444 L6.25718519,5.28059259 C6.05688889,5.07911111 6.07051852,4.73896297 6.288,4.52088889 C6.48948148,4.31940741 6.83022222,4.33303703 7.0482963,4.55051852 L7.05007408,4.5522963 L8.38103703,5.97214814 C8.58192592,6.17362963 8.5682963,6.51437036 8.35081481,6.73185186 L8.34607408,6.73659259 L8.34074073,6.74014814 C8.23492641,6.81770722 8.10748321,6.86018829 7.9762963,6.86162963 L7.9762963,6.86103703 Z M7.70014814,6.59377778 C7.84414814,6.736 8.06222222,6.74607408 8.24533333,6.61748148 C8.39644444,6.46340741 8.4082963,6.21807408 8.27081481,6.08059259 L8.26903703,6.07881481 L6.93807408,4.65955556 C6.78340741,4.50548148 6.5357037,4.49185186 6.39703703,4.63051852 C6.24296295,4.78518519 6.22874073,5.03348148 6.36740741,5.17214814 L6.36918519,5.17392592 L7.70014814,6.59377778 L7.70014814,6.59377778 Z M7.7042963,6.02607408 L9.12474073,4.69392592 C9.30251852,4.51614814 9.59881481,4.54577778 9.776,4.72355556 C9.92414814,4.90133334 9.92414814,5.168 9.74637038,5.34577778 L8.32533333,6.67733333 C8.14755555,6.85511111 7.85185184,6.85511111 7.67466667,6.67733333 C7.49688889,6.49955555 7.52651853,6.20325925 7.7042963,6.02607408 L7.7042963,6.02607408 Z M8,6.88771636 C7.85745302,6.88868367 7.72044616,6.83255781 7.61955556,6.73185186 C7.51890865,6.63001845 7.46763093,6.48938335 7.47911111,6.34666667 C7.48892173,6.20526421 7.54929131,6.07211458 7.64918519,5.97155556 L7.65096297,5.96977778 L9.07081481,4.63881481 C9.2722963,4.43792592 9.61303703,4.45155555 9.83051852,4.66903703 L9.83525927,4.67437037 C10.01449,4.88840878 9.99954069,5.20414948 9.80088889,5.4002963 L9.79911111,5.40207408 L8.37925927,6.73303703 C8.27846401,6.83301586 8.14196653,6.88868124 8,6.88771636 L8,6.88771636 Z M7.75762962,6.08177778 C7.68457199,6.15558107 7.64041587,6.25314508 7.63318519,6.35674073 C7.62496195,6.4551735 7.6600083,6.55230815 7.72918519,6.62281481 C7.80109684,6.69427441 7.89862499,6.73396858 8,6.73305306 C8.10136236,6.73390241 8.198866,6.69421822 8.27081481,6.62281481 L8.27259259,6.62103703 L9.69244444,5.29007408 C9.83233116,5.15116554 9.8436236,4.9286531 9.71851852,4.7762963 C9.56385184,4.62340741 9.31733333,4.61037037 9.17925927,4.74903703 L9.17748148,4.75081481 L7.75762963,6.08177778 L7.75762962,6.08177778 Z M11.9662222,2.26725927 L13.9786667,2.65244444 C14.2157037,2.7117037 14.3934815,2.94814814 14.3342222,3.18459259 L14.3342222,3.21422222 C14.274963,3.45125925 14.0379259,3.62903703 13.8008889,3.56977778 L11.7884444,3.18459259 C11.5514074,3.12533333 11.3736296,2.8882963 11.4328889,2.65185186 L11.4328889,2.62222222 C11.4921482,2.38518519 11.7291852,2.208 11.9662222,2.26666667 L11.9662222,2.26725927 Z M13.8945185,3.62726657 C13.8597971,3.62746107 13.8251776,3.62348182 13.7914074,3.61540741 L11.7771852,3.23022222 C11.6492331,3.19724626 11.5373654,3.11944355 11.4619259,3.01096297 C11.3857651,2.90588281 11.3583597,2.7731717 11.3866667,2.64651852 L11.3866667,2.61688889 L11.3884444,2.61096297 C11.4565926,2.33837037 11.7256296,2.16059259 11.9757037,2.22162962 L13.9899259,2.60681481 C14.1177888,2.63963948 14.2296438,2.71722309 14.3051852,2.82548148 C14.3828148,2.93748148 14.4094815,3.06666667 14.3804444,3.19051852 L14.3804444,3.22014814 L14.3786667,3.22607408 C14.3459934,3.35384796 14.2686288,3.46569022 14.1605926,3.54133333 C14.0827766,3.59651364 13.9899105,3.62650379 13.8945185,3.62726657 L13.8945185,3.62726657 Z M11.7985185,3.13955556 L13.8121481,3.52474073 C13.9147269,3.54892462 14.0227517,3.52705988 14.1078519,3.46488889 C14.1959909,3.40310956 14.2595604,3.3122661 14.2874074,3.2082963 L14.2874074,3.17866667 L14.2885926,3.17333333 C14.3127635,3.07102716 14.2911249,2.96326685 14.2293333,2.87822222 C14.1667612,2.78880241 14.0742828,2.7246981 13.9685926,2.69748148 L11.954963,2.3122963 C11.7540741,2.26192592 11.5377778,2.40711111 11.4797037,2.62814814 L11.4797037,2.65777778 L11.4785185,2.6637037 C11.4544285,2.76601122 11.4760604,2.8737377 11.5377778,2.95881481 C11.5994074,3.04711111 11.6942222,3.11288889 11.7985185,3.13955556 L11.7985185,3.13955556 Z M1.87318519,12.0343704 L3.88622222,12.4195556 C4.12325925,12.4788148 4.30044444,12.7152593 4.24118519,12.9517037 L4.24118519,12.9813333 C4.18192592,13.2183704 3.94488889,13.3961481 3.70785186,13.3368889 L1.696,12.9517037 C1.45896297,12.8924444 1.28118519,12.6554074 1.34044444,12.418963 L1.34044444,12.3893333 C1.37007406,12.1522963 1.63674073,11.9751111 1.87377778,12.0343704 L1.87318519,12.0343704 Z M3.7997037,13.3943723 C3.76576969,13.3944738 3.73194645,13.3904946 3.69896297,13.3825185 L1.68414814,12.9973333 C1.41274073,12.9291852 1.23555555,12.6631111 1.29422222,12.4136296 L1.29422222,12.384 C1.31373804,12.2538864 1.38791427,12.1383095 1.49807408,12.0663704 C1.60966456,11.987067 1.74975138,11.9590497 1.88325927,11.9893333 L3.89748148,12.3745185 C4.02525537,12.4071918 4.13709763,12.4845564 4.21274073,12.5925926 C4.28977777,12.7045926 4.31644444,12.8337778 4.28740741,12.9576296 L4.28740741,12.9872593 L4.28622222,12.9931852 C4.22696295,13.229037 4.01777778,13.3943723 3.8002963,13.3943723 L3.7997037,13.3943723 Z M1.70666667,12.9066667 L3.7202963,13.2918519 C3.92059259,13.3416296 4.13688889,13.197037 4.19555556,12.9754074 L4.19555556,12.9457778 L4.19674073,12.9404444 C4.22083072,12.8381369 4.1991989,12.7304104 4.13748148,12.6453333 C4.07487195,12.5559511 3.98240893,12.4918574 3.87674073,12.4645926 L1.86251852,12.0794074 C1.75432925,12.055122 1.64091823,12.0781923 1.55081481,12.1428148 C1.46385415,12.1993852 1.4047077,12.289933 1.38785186,12.3922963 L1.38785186,12.4248889 L1.38607408,12.4308148 C1.3357037,12.6322963 1.48207408,12.8497778 1.70607408,12.9066667 L1.70666667,12.9066667 Z M10.1908148,7.6242963 L5.83940741,7.6242963 C5.60237038,7.6242963 5.42459259,7.44651852 5.42459259,7.20948148 L5.42459259,7.12118519 C5.42459259,6.88414816 5.60237038,6.70637037 5.83940741,6.70637037 L10.1902222,6.70637037 C10.4272593,6.70637037 10.605037,6.88414816 10.605037,7.12118519 L10.605037,7.21007408 C10.605037,7.44711111 10.4272593,7.62488889 10.1902222,7.62488889 L10.1908148,7.6242963 Z M10.1908148,7.70133333 L5.83940741,7.70133333 C5.70807951,7.70427828 5.58125669,7.65340458 5.4883705,7.56051839 C5.39548431,7.4676322 5.34461061,7.34080938 5.34755556,7.20948148 L5.34755556,7.12118519 C5.34755556,6.84088889 5.55911113,6.62933333 5.83940741,6.62933333 L10.1902222,6.62933333 C10.4705185,6.62933333 10.6820741,6.84088889 10.6820741,7.12118519 L10.6820741,7.21007408 C10.6820741,7.49037037 10.4705185,7.70192592 10.1902222,7.70192592 L10.1908148,7.70133333 Z M5.84,6.784 C5.74963568,6.78082047 5.6620115,6.81532316 5.59807474,6.87925993 C5.53413797,6.94319669 5.49963528,7.03082087 5.50281481,7.12118519 L5.50281481,7.21007408 C5.50281481,7.40562964 5.64503703,7.54725927 5.84,7.54725927 L10.1908148,7.54725927 C10.2812858,7.55044851 10.3690076,7.51586625 10.4329637,7.45179767 C10.4969199,7.38772908 10.5313481,7.29994676 10.528,7.20948148 L10.528,7.12118519 C10.5311795,7.03082087 10.4966768,6.94319669 10.4327401,6.87925993 C10.3688033,6.81532316 10.2811791,6.78082047 10.1908148,6.784 L5.83940741,6.784 L5.84,6.784 Z M7.58637038,10.8207407 L7.58637038,7.53540741 C7.58637038,7.29837037 7.76414816,7.12118519 8.00118519,7.12118519 L8.08948148,7.12118519 C8.32651852,7.12118519 8.5042963,7.29896297 8.5042963,7.536 L8.5042963,10.8503704 C8.5042963,11.0874074 8.32651852,11.2651852 8.08948148,11.2651852 L7.97096297,11.2651852 C7.74968451,11.2338503 7.58534384,11.0442264 7.58577692,10.8207407 L7.58637038,10.8207407 Z M8.08948148,11.3422222 L7.9602963,11.3416296 C7.70168836,11.3035354 7.50975968,11.0821374 7.50874073,10.8207407 L7.50874073,7.53540741 C7.50874073,7.25511111 7.7202963,7.04355556 8.00059259,7.04355556 L8.08948148,7.04355556 C8.36977778,7.04355556 8.58133333,7.25511112 8.58133333,7.53540741 L8.58133333,10.8503704 C8.58133333,11.1306667 8.36977777,11.3422222 8.08948148,11.3422222 L8.08948148,11.3422222 Z M7.97688889,11.1875556 L8.08948148,11.1875556 C8.17984581,11.1907351 8.26746998,11.1562324 8.33140675,11.0922956 C8.39534351,11.0283589 8.4298462,10.9407347 8.42666667,10.8503704 L8.42666667,7.53540741 C8.42968754,7.44503745 8.3950309,7.35747383 8.33098173,7.2936494 C8.26693257,7.22982496 8.17924767,7.19547632 8.08888889,7.19881481 L8,7.19881481 C7.90974217,7.19564467 7.82221528,7.23006776 7.75829786,7.29387285 C7.69438044,7.35767793 7.65980344,7.44514414 7.66281481,7.53540741 L7.66281481,10.8207407 C7.66364083,11.0031851 7.79620963,11.1583081 7.9762963,11.1875556 L7.97688889,11.1875556 Z M10.1908148,9.696 L5.83940741,9.696 C5.60237038,9.696 5.42459259,9.51822222 5.42459259,9.28177778 L5.42459259,9.19288889 C5.42459259,8.95585186 5.60237038,8.77866667 5.83940741,8.77866667 L10.1902222,8.77866667 C10.4272593,8.77866667 10.605037,8.95644445 10.605037,9.19348148 L10.605037,9.28237037 C10.605037,9.51881481 10.4272593,9.696 10.1902222,9.696 L10.1908148,9.696 Z M10.1908148,9.77303703 L5.83940741,9.77303703 C5.70818463,9.7759761 5.5814563,9.72518266 5.48858859,9.63242683 C5.39572087,9.53967101 5.34477469,9.41300401 5.34755556,9.28177778 L5.34755556,9.19288889 C5.34755556,8.91259259 5.55911112,8.70103703 5.83940741,8.70103703 L10.1902222,8.70103703 C10.4705185,8.70103703 10.6820741,8.91259259 10.6820741,9.19288889 L10.6820741,9.28177778 C10.6820741,9.56207408 10.4705185,9.77362962 10.1902222,9.77362962 L10.1908148,9.77303703 Z M5.84,8.8557037 C5.74952898,8.85251446 5.66180725,8.88709672 5.59785107,8.9511653 C5.53389489,9.01523389 5.49946672,9.10301621 5.50281481,9.19348148 L5.50281481,9.28237038 C5.50281481,9.47733334 5.64503703,9.61896297 5.84,9.61896297 L10.1908148,9.61896297 C10.2811791,9.6221425 10.3688033,9.58763981 10.4327401,9.52370304 C10.4966768,9.45976628 10.5311795,9.3721421 10.528,9.28177778 L10.528,9.19288889 C10.5311795,9.10252457 10.4966768,9.01490039 10.4327401,8.95096363 C10.3688033,8.88702686 10.2811791,8.85252417 10.1908148,8.8557037 L5.83940741,8.8557037 L5.84,8.8557037 Z" id="形状" fill-opacity="0.798090581" fill="#FFFFFF"></path>
            </g>
        </g>
    </g>
</svg>